<?xml version="1.0" encoding="UTF-8"?>
<?xml-stylesheet type="text/css" href="../css/charts.css"?>
<svg viewBox="-25 0 1000 1000" xmlns="http://www.w3.org/2000/svg">
	<path fill="#9370DB" stroke="#9370DB" fill-opacity="0.6" d="M 138 900v -800 h 38 v 800 h -38 Z">
		<title>93</title>
	</path>
	<text class="rotated90" x="157" y="950">09/06</text>
	<path fill="#9370DB" stroke="#9370DB" fill-opacity="0.6" d="M 214 900v -791 h 38 v 791 h -38 Z">
		<title>92</title>
	</path>
	<text class="rotated90" x="233" y="950">10/06</text>
	<path fill="#9370DB" stroke="#9370DB" fill-opacity="0.6" d="M 290 900v -765 h 38 v 765 h -38 Z">
		<title>89</title>
	</path>
	<text class="rotated90" x="309" y="950">11/06</text>
	<path fill="#9370DB" stroke="#9370DB" fill-opacity="0.6" d="M 366 900v -722 h 38 v 722 h -38 Z">
		<title>84</title>
	</path>
	<text class="rotated90" x="385" y="950">12/06</text>
	<path fill="#9370DB" stroke="#9370DB" fill-opacity="0.6" d="M 442 900v -662 h 38 v 662 h -38 Z">
		<title>77</title>
	</path>
	<text class="rotated90" x="461" y="950">13/06</text>
	<path fill="#9370DB" stroke="#9370DB" fill-opacity="0.6" d="M 519 900v -584 h 38 v 584 h -38 Z">
		<title>68</title>
	</path>
	<text class="rotated90" x="538" y="950">14/06</text>
	<path fill="#9370DB" stroke="#9370DB" fill-opacity="0.6" d="M 595 900v -490 h 38 v 490 h -38 Z">
		<title>57</title>
	</path>
	<text class="rotated90" x="614" y="950">15/06</text>
	<path fill="#9370DB" stroke="#9370DB" fill-opacity="0.6" d="M 671 900v -378 h 38 v 378 h -38 Z">
		<title>44</title>
	</path>
	<text class="rotated90" x="690" y="950">16/06</text>
	<path fill="#9370DB" stroke="#9370DB" fill-opacity="0.6" d="M 747 900v -249 h 38 v 249 h -38 Z">
		<title>29</title>
	</path>
	<text class="rotated90" x="766" y="950">17/06</text>
	<path fill="#9370DB" stroke="#9370DB" fill-opacity="0.6" d="M 823 900v -103 h 38 v 103 h -38 Z">
		<title>12</title>
	</path>
	<text class="rotated90" x="842" y="950">18/06</text>
	<line stroke="Black" x1="100" x2="120" y1="900" y2="900"></line>
	<text class="anchor-end" y="900" x="75">0</text>
	<line stroke="Black" x1="100" x2="110" y1="865" y2="865"></line>
	<line stroke="Black" x1="100" x2="110" y1="831" y2="831"></line>
	<line stroke="Black" x1="100" x2="110" y1="796" y2="796"></line>
	<line stroke="Black" x1="100" x2="110" y1="762" y2="762"></line>
	<line stroke="Black" x1="100" x2="120" y1="727" y2="727"></line>
	<text class="anchor-end" y="727" x="75">20</text>
	<line stroke="Black" x1="100" x2="110" y1="693" y2="693"></line>
	<line stroke="Black" x1="100" x2="110" y1="659" y2="659"></line>
	<line stroke="Black" x1="100" x2="110" y1="624" y2="624"></line>
	<line stroke="Black" x1="100" x2="110" y1="590" y2="590"></line>
	<line stroke="Black" x1="100" x2="120" y1="555" y2="555"></line>
	<text class="anchor-end" y="555" x="75">40</text>
	<line stroke="Black" x1="100" x2="110" y1="521" y2="521"></line>
	<line stroke="Black" x1="100" x2="110" y1="487" y2="487"></line>
	<line stroke="Black" x1="100" x2="110" y1="452" y2="452"></line>
	<line stroke="Black" x1="100" x2="110" y1="418" y2="418"></line>
	<line stroke="Black" x1="100" x2="120" y1="383" y2="383"></line>
	<text class="anchor-end" y="383" x="75">60</text>
	<line stroke="Black" x1="100" x2="110" y1="349" y2="349"></line>
	<line stroke="Black" x1="100" x2="110" y1="315" y2="315"></line>
	<line stroke="Black" x1="100" x2="110" y1="280" y2="280"></line>
	<line stroke="Black" x1="100" x2="110" y1="246" y2="246"></line>
	<line stroke="Black" x1="100" x2="120" y1="211" y2="211"></line>
	<text class="anchor-end" y="211" x="75">80</text>
	<line stroke="Black" x1="100" x2="110" y1="177" y2="177"></line>
	<line stroke="Black" x1="100" x2="110" y1="143" y2="143"></line>
	<line stroke="Black" x1="100" x2="110" y1="108" y2="108"></line>
	<line stroke="Black" x1="100" x2="100" y1="100" y2="900"></line>
	<line stroke="Black" x1="100" x2="900" y1="900" y2="900"></line>
	<text class="anchor-start" x="50" y="50">Axis-2</text>
</svg>