<?xml version="1.0" encoding="UTF-8"?>
<svg viewBox="0 0 1000 1000" xmlns="http://www.w3.org/2000/svg" style="background-color: transparent; font-family: system-ui">
	<text style="font-size: 100px;pointer-events: none;text-anchor: middle;dominant-baseline: central" x="500" y="500" fill="currentColor">95</text>
	<path fill="#800080" stroke="transparent" fill-opacity="0.6" stroke-width="1px" vector-effect="non-scaling-stroke" d="M 500 233  L 500 100 A 400 400 0 0 1 629 121 L 586 247 A 266 266 0 0 0 500 233 Z">
		<title>S1</title>
	</path>
	<text style="font-size: 40px;pointer-events: none;dominant-baseline: central;text-anchor: middle;" x="572" y="66" fill="currentColor">5</text>
	<path fill="#FF4500" stroke="transparent" fill-opacity="0.6" stroke-width="1px" vector-effect="non-scaling-stroke" d="M 586 247  L 629 121 A 400 400 0 0 1 794 770 L 696 680 A 266 266 0 0 0 586 247 Z">
		<title>S2</title>
	</path>
	<text style="font-size: 40px;pointer-events: none;dominant-baseline: central;text-anchor: middle;" x="822" y="418" fill="currentColor">30</text>
	<path fill="#FFD700" stroke="transparent" fill-opacity="0.6" stroke-width="1px" vector-effect="non-scaling-stroke" d="M 696 680  L 794 770 A 400 400 0 0 1 690 851 L 626 734 A 266 266 0 0 0 696 680 Z">
		<title>S3</title>
	</path>
	<text style="font-size: 40px;pointer-events: none;dominant-baseline: central;text-anchor: middle;" x="770" y="847" fill="currentColor">5</text>
	<path fill="#00FFFF" stroke="transparent" fill-opacity="0.6" stroke-width="1px" vector-effect="non-scaling-stroke" d="M 626 734  L 690 851 A 400 400 0 0 1 165 281 L 276 354 A 266 266 0 0 0 626 734 Z">
		<title>S4</title>
	</path>
	<text style="font-size: 40px;pointer-events: none;dominant-baseline: central;text-anchor: middle;" x="255" y="725" fill="currentColor">40</text>
	<path fill="#1E90FF" stroke="transparent" fill-opacity="0.6" stroke-width="1px" vector-effect="non-scaling-stroke" d="M 276 354  L 165 281 A 400 400 0 0 1 499 100 L 499 233 A 266 266 0 0 0 276 354 Z">
		<title>S5</title>
	</path>
	<text style="font-size: 40px;pointer-events: none;dominant-baseline: central;text-anchor: middle;" x="341" y="207" fill="currentColor">15</text>
	<style>
		path {
			transition-duration: 0.25s;
			transform-origin: center;
		}
		path:hover {
			scale: 105%;
			fill-opacity: 1.0;
		}
	</style>
</svg>