<?xml version="1.0" encoding="UTF-8"?>
<?xml-stylesheet type="text/css" href="../css/charts.css"?>
<svg viewBox="0 0 1000 1000" xmlns="http://www.w3.org/2000/svg">
	<text>
		<tspan x="500" y="500">TOTAL</tspan>
		<tspan x="500" y="500" dy="1.5em">95</tspan>
	</text>
	<path fill="Purple" stroke="White" d="M 500 766  L 500 900 A 400 400 0 0 0 629 878 L 586 752 A 266 266 0 0 1 500 766 Z">
		<title>Slice-1: 5</title>
	</path>
	<text x="572" y="933">Slice-1</text>
	<path fill="OrangeRed" stroke="White" d="M 586 752  L 629 878 A 400 400 0 0 0 794 229 L 696 319 A 266 266 0 0 1 586 752 Z">
		<title>Slice-2: 30</title>
	</path>
	<text x="822" y="581">Slice-2</text>
	<path fill="Gold" stroke="White" d="M 696 319  L 794 229 A 400 400 0 0 0 690 148 L 626 265 A 266 266 0 0 1 696 319 Z">
		<title>Slice-3: 5</title>
	</path>
	<text x="770" y="152">Slice-3</text>
	<path fill="Aqua" stroke="White" d="M 626 265  L 690 148 A 400 400 0 0 0 165 718 L 276 645 A 266 266 0 0 1 626 265 Z">
		<title>Slice-4: 40</title>
	</path>
	<text x="255" y="274">Slice-4</text>
	<path fill="DodgerBlue" stroke="White" d="M 276 645  L 165 718 A 400 400 0 0 0 499 900 L 499 766 A 266 266 0 0 1 276 645 Z">
		<title>Slice-5: 15</title>
	</path>
	<text x="341" y="792">Slice-5</text>
</svg>