<?xml version="1.0" encoding="UTF-8"?>
<?xml-stylesheet type="text/css" href="../css/charts.css"?>
<svg viewBox="-25 0 1000 1000" xmlns="http://www.w3.org/2000/svg" style="background-color: #F0F4F8;">
	<path fill="#9370DB" stroke="#9370DB" fill-opacity="0.6" d="M 100 260 v 352 h 80 v -352 h -80 Z">
	    <title>value: -11</title>
	</path>
	<path fill="#9370DB" stroke="#9370DB" fill-opacity="0.6" d="M 180 260 v 128 h 80 v -128 h -80 Z">
		<title>value: -4</title>
	</path>
	<path fill="#4169E1" stroke="#4169E1" fill-opacity="0.6" d="M 260 260 v -32 h 80 v 32 h -80 Z">
		<title>value: 1</title>
	</path>
	<path fill="#4169E1" stroke="#4169E1" fill-opacity="0.6" d="M 340 260 v -128 h 80 v 128 h -80 Z">
		<title>value: 4</title>
	</path>
	<path fill="#4169E1" stroke="#4169E1" fill-opacity="0.6" d="M 420 260 v -160 h 80 v 160 h -80 Z">
		<title>value: 5</title>
	</path>
	<path fill="#4169E1" stroke="#4169E1" fill-opacity="0.6" d="M 500 260 v -128 h 80 v 128 h -80 Z">
		<title>value: 4</title>
	</path>
	<path fill="#4169E1" stroke="#4169E1" fill-opacity="0.6" d="M 580 260 v -32 h 80 v 32 h -80 Z">
		<title>value: 1</title>
	</path>
	<path fill="#9370DB" stroke="#9370DB" fill-opacity="0.6" d="M 660 260 v 128 h 80 v -128 h -80 Z">
		<title>value: -4</title>
	</path>
	<path fill="#9370DB" stroke="#9370DB" fill-opacity="0.6" d="M 740 260 v 352 h 80 v -352 h -80 Z">
		<title>value: -11</title>
	</path>
	<path fill="#9370DB" stroke="#9370DB" fill-opacity="0.6" d="M 820 260 v 640 h 80 v -640 h -80 Z">
		<title>value: -20</title>
	</path>
	<line stroke="#94A3B8" x1="140" x2="140" y1="250" y2="260"></line>
	<line stroke="#94A3B8" x1="180" x2="180" y1="250" y2="260"></line>
	<line stroke="#94A3B8" x1="220" x2="220" y1="250" y2="260"></line>
	<line stroke="#94A3B8" x1="260" x2="260" y1="250" y2="260"></line>
	<line stroke="#94A3B8" x1="300" x2="300" y1="240" y2="260"></line>
	<text x="300" y="220" fill="#475569">5</text>
	<line stroke="#94A3B8" x1="340" x2="340" y1="250" y2="260"></line>
	<line stroke="#94A3B8" x1="380" x2="380" y1="250" y2="260"></line>
	<line stroke="#94A3B8" x1="420" x2="420" y1="250" y2="260"></line>
	<line stroke="#94A3B8" x1="460" x2="460" y1="250" y2="260"></line>
	<line stroke="#94A3B8" x1="500" x2="500" y1="240" y2="260"></line>
	<text x="500" y="220" fill="#475569">10</text>
	<line stroke="#94A3B8" x1="540" x2="540" y1="250" y2="260"></line>
	<line stroke="#94A3B8" x1="580" x2="580" y1="250" y2="260"></line>
	<line stroke="#94A3B8" x1="620" x2="620" y1="250" y2="260"></line>
	<line stroke="#94A3B8" x1="660" x2="660" y1="250" y2="260"></line>
	<line stroke="#94A3B8" x1="700" x2="700" y1="240" y2="260"></line>
	<text x="700" y="220" fill="#475569">15</text>
	<line stroke="#94A3B8" x1="740" x2="740" y1="250" y2="260"></line>
	<line stroke="#94A3B8" x1="780" x2="780" y1="250" y2="260"></line>
	<line stroke="#94A3B8" x1="820" x2="820" y1="250" y2="260"></line>
	<line stroke="#94A3B8" x1="860" x2="860" y1="250" y2="260"></line>
	<line stroke="#94A3B8" x1="900" x2="900" y1="240" y2="260"></line>
	<text x="900" y="220" fill="#475569">20</text>
	<line stroke="#94A3B8" x1="100" x2="120" y1="900" y2="900"></line>
	<text class="anchor-end" x="75" y="900" fill="#475569">-20</text>
	<line stroke="#94A3B8" x1="100" x2="110" y1="868" y2="868"></line>
	<line stroke="#94A3B8" x1="100" x2="110" y1="836" y2="836"></line>
	<line stroke="#94A3B8" x1="100" x2="110" y1="804" y2="804"></line>
	<line stroke="#94A3B8" x1="100" x2="110" y1="772" y2="772"></line>
	<line stroke="#94A3B8" x1="100" x2="120" y1="740" y2="740"></line>
	<text class="anchor-end" x="75" y="740" fill="#475569">-15</text>
	<line stroke="#94A3B8" x1="100" x2="110" y1="708" y2="708"></line>
	<line stroke="#94A3B8" x1="100" x2="110" y1="676" y2="676"></line>
	<line stroke="#94A3B8" x1="100" x2="110" y1="644" y2="644"></line>
	<line stroke="#94A3B8" x1="100" x2="110" y1="612" y2="612"></line>
	<line stroke="#94A3B8" x1="100" x2="120" y1="580" y2="580"></line>
	<text class="anchor-end" x="75" y="580" fill="#475569">-10</text>
	<line stroke="#94A3B8" x1="100" x2="110" y1="548" y2="548"></line>
	<line stroke="#94A3B8" x1="100" x2="110" y1="516" y2="516"></line>
	<line stroke="#94A3B8" x1="100" x2="110" y1="484" y2="484"></line>
	<line stroke="#94A3B8" x1="100" x2="110" y1="452" y2="452"></line>
	<line stroke="#94A3B8" x1="100" x2="120" y1="420" y2="420"></line>
	<text class="anchor-end" x="75" y="420" fill="#475569">-5</text>
	<line stroke="#94A3B8" x1="100" x2="110" y1="388" y2="388"></line>
	<line stroke="#94A3B8" x1="100" x2="110" y1="356" y2="356"></line>
	<line stroke="#94A3B8" x1="100" x2="110" y1="324" y2="324"></line>
	<line stroke="#94A3B8" x1="100" x2="110" y1="292" y2="292"></line>
	<line stroke="#94A3B8" x1="100" x2="120" y1="260" y2="260"></line>
	<text class="anchor-end" x="75" y="260" fill="#475569">0</text>
	<line stroke="#94A3B8" x1="100" x2="110" y1="228" y2="228"></line>
	<line stroke="#94A3B8" x1="100" x2="110" y1="196" y2="196"></line>
	<line stroke="#94A3B8" x1="100" x2="110" y1="164" y2="164"></line>
	<line stroke="#94A3B8" x1="100" x2="110" y1="132" y2="132"></line>
	<line stroke="#94A3B8" x1="100" x2="120" y1="100" y2="100"></line>
	<text class="anchor-end" x="75" y="100" fill="#475569">5</text>
	<line stroke="#94A3B8" x1="100" x2="100" y1="100" y2="900"></line>
    <line stroke="#94A3B8" x1="100" x2="900" y1="260" y2="260"></line>
    <text x="500" y="25" fill="#475569">Axis-X</text>
    <text x="50" y="950" fill="#475569" class="anchor-start">Axis-Y</text>
</svg>