<?xml version="1.0" encoding="UTF-8"?>
<svg viewBox="-50 0 1000 1000" xmlns="http://www.w3.org/2000/svg" style="background-color: #F0F4F8; font-family: system-ui">
	<rect x="100" y="260" width="80" height="352" fill="#BA55D3" stroke="#BA55D3" fill-opacity="0.6" stroke-width="1px" vector-effect="non-scaling-stroke">
		<title>-11</title>
	</rect>
	<rect x="180" y="260" width="80" height="128" fill="#BA55D3" stroke="#BA55D3" fill-opacity="0.6" stroke-width="1px" vector-effect="non-scaling-stroke">
		<title>-4</title>
	</rect>
	<rect x="260" y="228" width="80" height="32" fill="#4169E1" stroke="#4169E1" fill-opacity="0.6" stroke-width="1px" vector-effect="non-scaling-stroke">
		<title>1</title>
	</rect>
	<rect x="340" y="132" width="80" height="128" fill="#4169E1" stroke="#4169E1" fill-opacity="0.6" stroke-width="1px" vector-effect="non-scaling-stroke">
		<title>4</title>
	</rect>
	<rect x="420" y="100" width="80" height="160" fill="#4169E1" stroke="#4169E1" fill-opacity="0.6" stroke-width="1px" vector-effect="non-scaling-stroke">
		<title>5</title>
	</rect>
	<rect x="500" y="132" width="80" height="128" fill="#4169E1" stroke="#4169E1" fill-opacity="0.6" stroke-width="1px" vector-effect="non-scaling-stroke">
		<title>4</title>
	</rect>
	<rect x="580" y="228" width="80" height="32" fill="#4169E1" stroke="#4169E1" fill-opacity="0.6" stroke-width="1px" vector-effect="non-scaling-stroke">
		<title>1</title>
	</rect>
	<rect x="660" y="260" width="80" height="128" fill="#BA55D3" stroke="#BA55D3" fill-opacity="0.6" stroke-width="1px" vector-effect="non-scaling-stroke">
		<title>-4</title>
	</rect>
	<rect x="740" y="260" width="80" height="352" fill="#BA55D3" stroke="#BA55D3" fill-opacity="0.6" stroke-width="1px" vector-effect="non-scaling-stroke">
		<title>-11</title>
	</rect>
	<rect x="820" y="260" width="80" height="640" fill="#BA55D3" stroke="#BA55D3" fill-opacity="0.6" stroke-width="1px" vector-effect="non-scaling-stroke">
		<title>-20</title>
	</rect>
	<line stroke="#94A3B8" stroke-width="1px" vector-effect="non-scaling-stroke" x1="140" x2="140" y1="250" y2="260"></line>
	<line stroke="#94A3B8" stroke-width="1px" vector-effect="non-scaling-stroke" x1="180" x2="180" y1="250" y2="260"></line>
	<line stroke="#94A3B8" stroke-width="1px" vector-effect="non-scaling-stroke" x1="220" x2="220" y1="250" y2="260"></line>
	<line stroke="#94A3B8" stroke-width="1px" vector-effect="non-scaling-stroke" x1="260" x2="260" y1="250" y2="260"></line>
	<line stroke="#94A3B8" stroke-width="1px" vector-effect="non-scaling-stroke" x1="300" x2="300" y1="240" y2="260"></line>
	<text style="font-size: 40px;pointer-events: none;dominant-baseline: central;text-anchor: middle;" x="300" y="260" dy="-1em" fill="#475569">5</text>
	<line stroke="#94A3B8" stroke-width="1px" vector-effect="non-scaling-stroke" x1="340" x2="340" y1="250" y2="260"></line>
	<line stroke="#94A3B8" stroke-width="1px" vector-effect="non-scaling-stroke" x1="380" x2="380" y1="250" y2="260"></line>
	<line stroke="#94A3B8" stroke-width="1px" vector-effect="non-scaling-stroke" x1="420" x2="420" y1="250" y2="260"></line>
	<line stroke="#94A3B8" stroke-width="1px" vector-effect="non-scaling-stroke" x1="460" x2="460" y1="250" y2="260"></line>
	<line stroke="#94A3B8" stroke-width="1px" vector-effect="non-scaling-stroke" x1="500" x2="500" y1="240" y2="260"></line>
	<text style="font-size: 40px;pointer-events: none;dominant-baseline: central;text-anchor: middle;" x="500" y="260" dy="-1em" fill="#475569">10</text>
	<line stroke="#94A3B8" stroke-width="1px" vector-effect="non-scaling-stroke" x1="540" x2="540" y1="250" y2="260"></line>
	<line stroke="#94A3B8" stroke-width="1px" vector-effect="non-scaling-stroke" x1="580" x2="580" y1="250" y2="260"></line>
	<line stroke="#94A3B8" stroke-width="1px" vector-effect="non-scaling-stroke" x1="620" x2="620" y1="250" y2="260"></line>
	<line stroke="#94A3B8" stroke-width="1px" vector-effect="non-scaling-stroke" x1="660" x2="660" y1="250" y2="260"></line>
	<line stroke="#94A3B8" stroke-width="1px" vector-effect="non-scaling-stroke" x1="700" x2="700" y1="240" y2="260"></line>
	<text style="font-size: 40px;pointer-events: none;dominant-baseline: central;text-anchor: middle;" x="700" y="260" dy="-1em" fill="#475569">15</text>
	<line stroke="#94A3B8" stroke-width="1px" vector-effect="non-scaling-stroke" x1="740" x2="740" y1="250" y2="260"></line>
	<line stroke="#94A3B8" stroke-width="1px" vector-effect="non-scaling-stroke" x1="780" x2="780" y1="250" y2="260"></line>
	<line stroke="#94A3B8" stroke-width="1px" vector-effect="non-scaling-stroke" x1="820" x2="820" y1="250" y2="260"></line>
	<line stroke="#94A3B8" stroke-width="1px" vector-effect="non-scaling-stroke" x1="860" x2="860" y1="250" y2="260"></line>
	<line stroke="#94A3B8" stroke-width="1px" vector-effect="non-scaling-stroke" x1="900" x2="900" y1="240" y2="260"></line>
	<text style="font-size: 40px;pointer-events: none;dominant-baseline: central;text-anchor: middle;" x="900" y="260" dy="-1em" fill="#475569">20</text>
	<line stroke="#94A3B8" stroke-width="1px" vector-effect="non-scaling-stroke" x1="100" x2="120" y1="900" y2="900"></line>
	<text style="font-size: 40px;pointer-events: none;dominant-baseline: central;text-anchor: end;transform: translateX(-0.5em);" x="100" y="900" fill="#475569">-20</text>
	<line stroke="#94A3B8" stroke-width="1px" vector-effect="non-scaling-stroke" x1="100" x2="110" y1="868" y2="868"></line>
	<line stroke="#94A3B8" stroke-width="1px" vector-effect="non-scaling-stroke" x1="100" x2="110" y1="836" y2="836"></line>
	<line stroke="#94A3B8" stroke-width="1px" vector-effect="non-scaling-stroke" x1="100" x2="110" y1="804" y2="804"></line>
	<line stroke="#94A3B8" stroke-width="1px" vector-effect="non-scaling-stroke" x1="100" x2="110" y1="772" y2="772"></line>
	<line stroke="#94A3B8" stroke-width="1px" vector-effect="non-scaling-stroke" x1="100" x2="120" y1="740" y2="740"></line>
	<text style="font-size: 40px;pointer-events: none;dominant-baseline: central;text-anchor: end;transform: translateX(-0.5em);" x="100" y="740" fill="#475569">-15</text>
	<line stroke="#94A3B8" stroke-width="1px" vector-effect="non-scaling-stroke" x1="100" x2="110" y1="708" y2="708"></line>
	<line stroke="#94A3B8" stroke-width="1px" vector-effect="non-scaling-stroke" x1="100" x2="110" y1="676" y2="676"></line>
	<line stroke="#94A3B8" stroke-width="1px" vector-effect="non-scaling-stroke" x1="100" x2="110" y1="644" y2="644"></line>
	<line stroke="#94A3B8" stroke-width="1px" vector-effect="non-scaling-stroke" x1="100" x2="110" y1="612" y2="612"></line>
	<line stroke="#94A3B8" stroke-width="1px" vector-effect="non-scaling-stroke" x1="100" x2="120" y1="580" y2="580"></line>
	<text style="font-size: 40px;pointer-events: none;dominant-baseline: central;text-anchor: end;transform: translateX(-0.5em);" x="100" y="580" fill="#475569">-10</text>
	<line stroke="#94A3B8" stroke-width="1px" vector-effect="non-scaling-stroke" x1="100" x2="110" y1="548" y2="548"></line>
	<line stroke="#94A3B8" stroke-width="1px" vector-effect="non-scaling-stroke" x1="100" x2="110" y1="516" y2="516"></line>
	<line stroke="#94A3B8" stroke-width="1px" vector-effect="non-scaling-stroke" x1="100" x2="110" y1="484" y2="484"></line>
	<line stroke="#94A3B8" stroke-width="1px" vector-effect="non-scaling-stroke" x1="100" x2="110" y1="452" y2="452"></line>
	<line stroke="#94A3B8" stroke-width="1px" vector-effect="non-scaling-stroke" x1="100" x2="120" y1="420" y2="420"></line>
	<text style="font-size: 40px;pointer-events: none;dominant-baseline: central;text-anchor: end;transform: translateX(-0.5em);" x="100" y="420" fill="#475569">-5</text>
	<line stroke="#94A3B8" stroke-width="1px" vector-effect="non-scaling-stroke" x1="100" x2="110" y1="388" y2="388"></line>
	<line stroke="#94A3B8" stroke-width="1px" vector-effect="non-scaling-stroke" x1="100" x2="110" y1="356" y2="356"></line>
	<line stroke="#94A3B8" stroke-width="1px" vector-effect="non-scaling-stroke" x1="100" x2="110" y1="324" y2="324"></line>
	<line stroke="#94A3B8" stroke-width="1px" vector-effect="non-scaling-stroke" x1="100" x2="110" y1="292" y2="292"></line>
	<line stroke="#94A3B8" stroke-width="1px" vector-effect="non-scaling-stroke" x1="100" x2="120" y1="260" y2="260"></line>
	<text style="font-size: 40px;pointer-events: none;dominant-baseline: central;text-anchor: end;transform: translateX(-0.5em);" x="100" y="260" fill="#475569">0</text>
	<line stroke="#94A3B8" stroke-width="1px" vector-effect="non-scaling-stroke" x1="100" x2="110" y1="228" y2="228"></line>
	<line stroke="#94A3B8" stroke-width="1px" vector-effect="non-scaling-stroke" x1="100" x2="110" y1="196" y2="196"></line>
	<line stroke="#94A3B8" stroke-width="1px" vector-effect="non-scaling-stroke" x1="100" x2="110" y1="164" y2="164"></line>
	<line stroke="#94A3B8" stroke-width="1px" vector-effect="non-scaling-stroke" x1="100" x2="110" y1="132" y2="132"></line>
	<line stroke="#94A3B8" stroke-width="1px" vector-effect="non-scaling-stroke" x1="100" x2="120" y1="100" y2="100"></line>
	<text style="font-size: 40px;pointer-events: none;dominant-baseline: central;text-anchor: end;transform: translateX(-0.5em);" x="100" y="100" fill="#475569">5</text>
	<line stroke="#94A3B8" stroke-width="1px" vector-effect="non-scaling-stroke" x1="100" x2="100" y1="100" y2="900"></line>
	<line stroke="#94A3B8" stroke-width="1px" vector-effect="non-scaling-stroke" x1="100" x2="900" y1="260" y2="260"></line>
	<text style="font-size: 40px;pointer-events: none;dominant-baseline: central;text-anchor: middle;" x="500" y="25" fill="#475569">Axis-X</text>
	<text style="font-size: 40px;pointer-events: none;dominant-baseline: central;text-anchor: start;transform: translateX(0.5em);" x="50" y="950" fill="#475569">Axis-Y</text>
	<style>
		rect {
			cursor: pointer;
			transition-duration: 0.25s;
		}
		rect:hover {
			fill-opacity: 1.0;
		}
	</style>
</svg>