<?xml version="1.0" encoding="UTF-8"?>
<svg viewBox="-25 0 1000 1000" xmlns="http://www.w3.org/2000/svg" style="background-color: transparent; font-family: system-ui">
	<rect x="100" y="767" width="80" height="133" fill="#4169E1" stroke="#4169E1" fill-opacity="0.6" stroke-width="1px" vector-effect="non-scaling-stroke">
		<title>5</title>
	</rect>
	<rect x="180" y="527" width="80" height="373" fill="#4169E1" stroke="#4169E1" fill-opacity="0.6" stroke-width="1px" vector-effect="non-scaling-stroke">
		<title>14</title>
	</rect>
	<rect x="260" y="340" width="80" height="560" fill="#4169E1" stroke="#4169E1" fill-opacity="0.6" stroke-width="1px" vector-effect="non-scaling-stroke">
		<title>21</title>
	</rect>
	<rect x="340" y="207" width="80" height="693" fill="#4169E1" stroke="#4169E1" fill-opacity="0.6" stroke-width="1px" vector-effect="non-scaling-stroke">
		<title>26</title>
	</rect>
	<rect x="420" y="127" width="80" height="773" fill="#4169E1" stroke="#4169E1" fill-opacity="0.6" stroke-width="1px" vector-effect="non-scaling-stroke">
		<title>29</title>
	</rect>
	<rect x="500" y="100" width="80" height="800" fill="#4169E1" stroke="#4169E1" fill-opacity="0.6" stroke-width="1px" vector-effect="non-scaling-stroke">
		<title>30</title>
	</rect>
	<rect x="580" y="127" width="80" height="773" fill="#4169E1" stroke="#4169E1" fill-opacity="0.6" stroke-width="1px" vector-effect="non-scaling-stroke">
		<title>29</title>
	</rect>
	<rect x="660" y="207" width="80" height="693" fill="#4169E1" stroke="#4169E1" fill-opacity="0.6" stroke-width="1px" vector-effect="non-scaling-stroke">
		<title>26</title>
	</rect>
	<rect x="740" y="340" width="80" height="560" fill="#4169E1" stroke="#4169E1" fill-opacity="0.6" stroke-width="1px" vector-effect="non-scaling-stroke">
		<title>21</title>
	</rect>
	<rect x="820" y="527" width="80" height="373" fill="#4169E1" stroke="#4169E1" fill-opacity="0.6" stroke-width="1px" vector-effect="non-scaling-stroke">
		<title>14</title>
	</rect>
	<text style="font-size: 40px;pointer-events: none;dominant-baseline: central;text-anchor: middle;" x="100" y="900" dy="1em" fill="currentColor">0</text>
	<line stroke="currentColor" stroke-width="1px" vector-effect="non-scaling-stroke" x1="140" x2="140" y1="890" y2="900"></line>
	<line stroke="currentColor" stroke-width="1px" vector-effect="non-scaling-stroke" x1="180" x2="180" y1="890" y2="900"></line>
	<line stroke="currentColor" stroke-width="1px" vector-effect="non-scaling-stroke" x1="220" x2="220" y1="890" y2="900"></line>
	<line stroke="currentColor" stroke-width="1px" vector-effect="non-scaling-stroke" x1="260" x2="260" y1="890" y2="900"></line>
	<line stroke="currentColor" stroke-width="1px" vector-effect="non-scaling-stroke" x1="300" x2="300" y1="880" y2="900"></line>
	<text style="font-size: 40px;pointer-events: none;dominant-baseline: central;text-anchor: middle;" x="300" y="900" dy="1em" fill="currentColor">5</text>
	<line stroke="currentColor" stroke-width="1px" vector-effect="non-scaling-stroke" x1="340" x2="340" y1="890" y2="900"></line>
	<line stroke="currentColor" stroke-width="1px" vector-effect="non-scaling-stroke" x1="380" x2="380" y1="890" y2="900"></line>
	<line stroke="currentColor" stroke-width="1px" vector-effect="non-scaling-stroke" x1="420" x2="420" y1="890" y2="900"></line>
	<line stroke="currentColor" stroke-width="1px" vector-effect="non-scaling-stroke" x1="460" x2="460" y1="890" y2="900"></line>
	<line stroke="currentColor" stroke-width="1px" vector-effect="non-scaling-stroke" x1="500" x2="500" y1="880" y2="900"></line>
	<text style="font-size: 40px;pointer-events: none;dominant-baseline: central;text-anchor: middle;" x="500" y="900" dy="1em" fill="currentColor">10</text>
	<line stroke="currentColor" stroke-width="1px" vector-effect="non-scaling-stroke" x1="540" x2="540" y1="890" y2="900"></line>
	<line stroke="currentColor" stroke-width="1px" vector-effect="non-scaling-stroke" x1="580" x2="580" y1="890" y2="900"></line>
	<line stroke="currentColor" stroke-width="1px" vector-effect="non-scaling-stroke" x1="620" x2="620" y1="890" y2="900"></line>
	<line stroke="currentColor" stroke-width="1px" vector-effect="non-scaling-stroke" x1="660" x2="660" y1="890" y2="900"></line>
	<line stroke="currentColor" stroke-width="1px" vector-effect="non-scaling-stroke" x1="700" x2="700" y1="880" y2="900"></line>
	<text style="font-size: 40px;pointer-events: none;dominant-baseline: central;text-anchor: middle;" x="700" y="900" dy="1em" fill="currentColor">15</text>
	<line stroke="currentColor" stroke-width="1px" vector-effect="non-scaling-stroke" x1="740" x2="740" y1="890" y2="900"></line>
	<line stroke="currentColor" stroke-width="1px" vector-effect="non-scaling-stroke" x1="780" x2="780" y1="890" y2="900"></line>
	<line stroke="currentColor" stroke-width="1px" vector-effect="non-scaling-stroke" x1="820" x2="820" y1="890" y2="900"></line>
	<line stroke="currentColor" stroke-width="1px" vector-effect="non-scaling-stroke" x1="860" x2="860" y1="890" y2="900"></line>
	<line stroke="currentColor" stroke-width="1px" vector-effect="non-scaling-stroke" x1="900" x2="900" y1="880" y2="900"></line>
	<text style="font-size: 40px;pointer-events: none;dominant-baseline: central;text-anchor: middle;" x="900" y="900" dy="1em" fill="currentColor">20</text>
	<line stroke="currentColor" stroke-width="1px" vector-effect="non-scaling-stroke" x1="100" x2="120" y1="900" y2="900"></line>
	<text style="font-size: 40px;pointer-events: none;dominant-baseline: central;text-anchor: end;transform: translateX(-0.5em);" x="100" y="900" fill="currentColor">0</text>
	<line stroke="currentColor" stroke-width="1px" vector-effect="non-scaling-stroke" x1="100" x2="110" y1="874" y2="874"></line>
	<line stroke="currentColor" stroke-width="1px" vector-effect="non-scaling-stroke" x1="100" x2="110" y1="847" y2="847"></line>
	<line stroke="currentColor" stroke-width="1px" vector-effect="non-scaling-stroke" x1="100" x2="110" y1="820" y2="820"></line>
	<line stroke="currentColor" stroke-width="1px" vector-effect="non-scaling-stroke" x1="100" x2="110" y1="794" y2="794"></line>
	<line stroke="currentColor" stroke-width="1px" vector-effect="non-scaling-stroke" x1="100" x2="120" y1="767" y2="767"></line>
	<text style="font-size: 40px;pointer-events: none;dominant-baseline: central;text-anchor: end;transform: translateX(-0.5em);" x="100" y="767" fill="currentColor">5</text>
	<line stroke="currentColor" stroke-width="1px" vector-effect="non-scaling-stroke" x1="100" x2="110" y1="740" y2="740"></line>
	<line stroke="currentColor" stroke-width="1px" vector-effect="non-scaling-stroke" x1="100" x2="110" y1="714" y2="714"></line>
	<line stroke="currentColor" stroke-width="1px" vector-effect="non-scaling-stroke" x1="100" x2="110" y1="687" y2="687"></line>
	<line stroke="currentColor" stroke-width="1px" vector-effect="non-scaling-stroke" x1="100" x2="110" y1="660" y2="660"></line>
	<line stroke="currentColor" stroke-width="1px" vector-effect="non-scaling-stroke" x1="100" x2="120" y1="634" y2="634"></line>
	<text style="font-size: 40px;pointer-events: none;dominant-baseline: central;text-anchor: end;transform: translateX(-0.5em);" x="100" y="634" fill="currentColor">10</text>
	<line stroke="currentColor" stroke-width="1px" vector-effect="non-scaling-stroke" x1="100" x2="110" y1="607" y2="607"></line>
	<line stroke="currentColor" stroke-width="1px" vector-effect="non-scaling-stroke" x1="100" x2="110" y1="580" y2="580"></line>
	<line stroke="currentColor" stroke-width="1px" vector-effect="non-scaling-stroke" x1="100" x2="110" y1="554" y2="554"></line>
	<line stroke="currentColor" stroke-width="1px" vector-effect="non-scaling-stroke" x1="100" x2="110" y1="527" y2="527"></line>
	<line stroke="currentColor" stroke-width="1px" vector-effect="non-scaling-stroke" x1="100" x2="120" y1="500" y2="500"></line>
	<text style="font-size: 40px;pointer-events: none;dominant-baseline: central;text-anchor: end;transform: translateX(-0.5em);" x="100" y="500" fill="currentColor">15</text>
	<line stroke="currentColor" stroke-width="1px" vector-effect="non-scaling-stroke" x1="100" x2="110" y1="474" y2="474"></line>
	<line stroke="currentColor" stroke-width="1px" vector-effect="non-scaling-stroke" x1="100" x2="110" y1="447" y2="447"></line>
	<line stroke="currentColor" stroke-width="1px" vector-effect="non-scaling-stroke" x1="100" x2="110" y1="420" y2="420"></line>
	<line stroke="currentColor" stroke-width="1px" vector-effect="non-scaling-stroke" x1="100" x2="110" y1="394" y2="394"></line>
	<line stroke="currentColor" stroke-width="1px" vector-effect="non-scaling-stroke" x1="100" x2="120" y1="367" y2="367"></line>
	<text style="font-size: 40px;pointer-events: none;dominant-baseline: central;text-anchor: end;transform: translateX(-0.5em);" x="100" y="367" fill="currentColor">20</text>
	<line stroke="currentColor" stroke-width="1px" vector-effect="non-scaling-stroke" x1="100" x2="110" y1="340" y2="340"></line>
	<line stroke="currentColor" stroke-width="1px" vector-effect="non-scaling-stroke" x1="100" x2="110" y1="314" y2="314"></line>
	<line stroke="currentColor" stroke-width="1px" vector-effect="non-scaling-stroke" x1="100" x2="110" y1="287" y2="287"></line>
	<line stroke="currentColor" stroke-width="1px" vector-effect="non-scaling-stroke" x1="100" x2="110" y1="260" y2="260"></line>
	<line stroke="currentColor" stroke-width="1px" vector-effect="non-scaling-stroke" x1="100" x2="120" y1="234" y2="234"></line>
	<text style="font-size: 40px;pointer-events: none;dominant-baseline: central;text-anchor: end;transform: translateX(-0.5em);" x="100" y="234" fill="currentColor">25</text>
	<line stroke="currentColor" stroke-width="1px" vector-effect="non-scaling-stroke" x1="100" x2="110" y1="207" y2="207"></line>
	<line stroke="currentColor" stroke-width="1px" vector-effect="non-scaling-stroke" x1="100" x2="110" y1="180" y2="180"></line>
	<line stroke="currentColor" stroke-width="1px" vector-effect="non-scaling-stroke" x1="100" x2="110" y1="154" y2="154"></line>
	<line stroke="currentColor" stroke-width="1px" vector-effect="non-scaling-stroke" x1="100" x2="110" y1="127" y2="127"></line>
	<line stroke="currentColor" stroke-width="1px" vector-effect="non-scaling-stroke" x1="100" x2="120" y1="100" y2="100"></line>
	<text style="font-size: 40px;pointer-events: none;dominant-baseline: central;text-anchor: end;transform: translateX(-0.5em);" x="100" y="100" fill="currentColor">30</text>
	<line stroke="currentColor" stroke-width="1px" vector-effect="non-scaling-stroke" x1="100" x2="100" y1="100" y2="900"></line>
	<line stroke="currentColor" stroke-width="1px" vector-effect="non-scaling-stroke" x1="100" x2="900" y1="900" y2="900"></line>
	<text style="font-size: 40px;pointer-events: none;dominant-baseline: central;text-anchor: middle;" x="500" y="975" fill="currentColor">Axis-X</text>
	<text style="font-size: 40px;pointer-events: none;dominant-baseline: central;text-anchor: start;transform: translateX(0.5em);" x="50" y="50" fill="currentColor">Axis-Y</text>
	<style>
		rect {
			cursor: pointer;
			transition-duration: 0.25s;
		}
		rect:hover {
			fill-opacity: 1.0;
		}
	</style>
</svg>