<?xml version="1.0" encoding="UTF-8"?>
<?xml-stylesheet type="text/css" href="../css/charts.css"?>
<svg viewBox="0 0 1000 1000" xmlns="http://www.w3.org/2000/svg">
	<path fill="#9370DB" stroke="#9370DB" fill-opacity="0.6" d="M 100 138h 800 v 38 h -800 v -38 Z">
		<title>value: 93</title>
	</path>
	<text x="50" y="157">09/06</text>
	<path fill="#9370DB" stroke="#9370DB" fill-opacity="0.6" d="M 100 214h 791 v 38 h -791 v -38 Z">
		<title>value: 92</title>
	</path>
	<text x="50" y="233">10/06</text>
	<path fill="#9370DB" stroke="#9370DB" fill-opacity="0.6" d="M 100 290h 765 v 38 h -765 v -38 Z">
		<title>value: 89</title>
	</path>
	<text x="50" y="309">11/06</text>
	<path fill="#9370DB" stroke="#9370DB" fill-opacity="0.6" d="M 100 366h 722 v 38 h -722 v -38 Z">
		<title>value: 84</title>
	</path>
	<text x="50" y="385">12/06</text>
	<path fill="#9370DB" stroke="#9370DB" fill-opacity="0.6" d="M 100 442h 662 v 38 h -662 v -38 Z">
		<title>value: 77</title>
	</path>
	<text x="50" y="461">13/06</text>
	<path fill="#9370DB" stroke="#9370DB" fill-opacity="0.6" d="M 100 519h 584 v 38 h -584 v -38 Z">
		<title>value: 68</title>
	</path>
	<text x="50" y="538">14/06</text>
	<path fill="#9370DB" stroke="#9370DB" fill-opacity="0.6" d="M 100 595h 490 v 38 h -490 v -38 Z">
		<title>value: 57</title>
	</path>
	<text x="50" y="614">15/06</text>
	<path fill="#9370DB" stroke="#9370DB" fill-opacity="0.6" d="M 100 671h 378 v 38 h -378 v -38 Z">
		<title>value: 44</title>
	</path>
	<text x="50" y="690">16/06</text>
	<path fill="#9370DB" stroke="#9370DB" fill-opacity="0.6" d="M 100 747h 249 v 38 h -249 v -38 Z">
		<title>value: 29</title>
	</path>
	<text x="50" y="766">17/06</text>
	<path fill="#9370DB" stroke="#9370DB" fill-opacity="0.6" d="M 100 823h 103 v 38 h -103 v -38 Z">
		<title>value: 12</title>
	</path>
	<text x="50" y="842">18/06</text>
	<line stroke="Black" y1="900" y2="880" x1="100" x2="100"></line>
	<text x="100" y="940">0</text>
	<line stroke="Black" y1="900" y2="890" x1="134" x2="134"></line>
	<line stroke="Black" y1="900" y2="890" x1="168" x2="168"></line>
	<line stroke="Black" y1="900" y2="890" x1="203" x2="203"></line>
	<line stroke="Black" y1="900" y2="890" x1="237" x2="237"></line>
	<line stroke="Black" y1="900" y2="880" x1="272" x2="272"></line>
	<text x="272" y="940">20</text>
	<line stroke="Black" y1="900" y2="890" x1="306" x2="306"></line>
	<line stroke="Black" y1="900" y2="890" x1="340" x2="340"></line>
	<line stroke="Black" y1="900" y2="890" x1="375" x2="375"></line>
	<line stroke="Black" y1="900" y2="890" x1="409" x2="409"></line>
	<line stroke="Black" y1="900" y2="880" x1="444" x2="444"></line>
	<text x="444" y="940">40</text>
	<line stroke="Black" y1="900" y2="890" x1="478" x2="478"></line>
	<line stroke="Black" y1="900" y2="890" x1="512" x2="512"></line>
	<line stroke="Black" y1="900" y2="890" x1="547" x2="547"></line>
	<line stroke="Black" y1="900" y2="890" x1="581" x2="581"></line>
	<line stroke="Black" y1="900" y2="880" x1="616" x2="616"></line>
	<text x="616" y="940">60</text>
	<line stroke="Black" y1="900" y2="890" x1="650" x2="650"></line>
	<line stroke="Black" y1="900" y2="890" x1="684" x2="684"></line>
	<line stroke="Black" y1="900" y2="890" x1="719" x2="719"></line>
	<line stroke="Black" y1="900" y2="890" x1="753" x2="753"></line>
	<line stroke="Black" y1="900" y2="880" x1="788" x2="788"></line>
	<text x="788" y="940">80</text>
	<line stroke="Black" y1="900" y2="890" x1="822" x2="822"></line>
	<line stroke="Black" y1="900" y2="890" x1="856" x2="856"></line>
	<line stroke="Black" y1="900" y2="890" x1="891" x2="891"></line>
	<line stroke="Black" x1="100" x2="100" y1="100" y2="900"></line>
	<line stroke="Black" x1="100" x2="900" y1="900" y2="900"></line>
	<text x="500" y="975">Axis-2</text>
</svg>
