<?xml version="1.0" encoding="UTF-8"?>
<?xml-stylesheet type="text/css" href="../css/charts.css"?>
<svg viewBox="0 0 1000 1000" xmlns="http://www.w3.org/2000/svg">
	<path fill="#BA55D3" stroke="#BA55D3" fill-opacity="0.6" d="M 455 138h 444 v 38 h -444 v -38 Z">
		<title>value: 45</title>
	</path>
	<text x="405" y="157">09/06</text>
	<path fill="#BA55D3" stroke="#BA55D3" fill-opacity="0.6" d="M 455 214h 434 v 38 h -434 v -38 Z">
		<title>value: 44</title>
	</path>
	<text x="405" y="233">10/06</text>
	<path fill="#BA55D3" stroke="#BA55D3" fill-opacity="0.6" d="M 455 290h 404 v 38 h -404 v -38 Z">
		<title>value: 41</title>
	</path>
	<text x="405" y="309">11/06</text>
	<path fill="#BA55D3" stroke="#BA55D3" fill-opacity="0.6" d="M 455 366h 355 v 38 h -355 v -38 Z">
		<title>value: 36</title>
	</path>
	<text x="405" y="385">12/06</text>
	<path fill="#BA55D3" stroke="#BA55D3" fill-opacity="0.6" d="M 455 442h 286 v 38 h -286 v -38 Z">
		<title>value: 29</title>
	</path>
	<text x="405" y="461">13/06</text>
	<path fill="#BA55D3" stroke="#BA55D3" fill-opacity="0.6" d="M 455 519h 197 v 38 h -197 v -38 Z">
		<title>value: 20</title>
	</path>
	<text x="405" y="538">14/06</text>
	<path fill="#BA55D3" stroke="#BA55D3" fill-opacity="0.6" d="M 455 595h 88 v 38 h -88 v -38 Z">
		<title>value: 9</title>
	</path>
	<text x="405" y="614">15/06</text>
	<path fill="#7B68EE" stroke="#7B68EE" fill-opacity="0.6" d="M 455 671h -39 v 38 h 39 v -38 Z">
		<title>value: -4</title>
	</path>
	<text x="505" y="690">16/06</text>
	<path fill="#7B68EE" stroke="#7B68EE" fill-opacity="0.6" d="M 455 747h -187 v 38 h 187 v -38 Z">
		<title>value: -19</title>
	</path>
	<text x="505" y="766">17/06</text>
	<path fill="#7B68EE" stroke="#7B68EE" fill-opacity="0.6" d="M 455 823h -355 v 38 h 355 v -38 Z">
		<title>value: -36</title>
	</path>
	<text x="505" y="842">18/06</text>
	<line stroke="Black" y1="900" y2="880" x1="109" x2="109"></line>
	<text x="109" y="940">-35</text>
	<line stroke="Black" y1="900" y2="890" x1="139" x2="139"></line>
	<line stroke="Black" y1="900" y2="890" x1="169" x2="169"></line>
	<line stroke="Black" y1="900" y2="890" x1="198" x2="198"></line>
	<line stroke="Black" y1="900" y2="890" x1="228" x2="228"></line>
	<line stroke="Black" y1="900" y2="880" x1="258" x2="258"></line>
	<text x="258" y="940">-20</text>
	<line stroke="Black" y1="900" y2="890" x1="287" x2="287"></line>
	<line stroke="Black" y1="900" y2="890" x1="317" x2="317"></line>
	<line stroke="Black" y1="900" y2="890" x1="346" x2="346"></line>
	<line stroke="Black" y1="900" y2="890" x1="376" x2="376"></line>
	<line stroke="Black" y1="900" y2="880" x1="406" x2="406"></line>
	<text x="406" y="940">-5</text>
	<line stroke="Black" y1="900" y2="890" x1="435" x2="435"></line>
	<line stroke="Black" y1="900" y2="890" x1="465" x2="465"></line>
	<line stroke="Black" y1="900" y2="890" x1="495" x2="495"></line>
	<line stroke="Black" y1="900" y2="890" x1="524" x2="524"></line>
	<line stroke="Black" y1="900" y2="880" x1="554" x2="554"></line>
	<text x="554" y="940">10</text>
	<line stroke="Black" y1="900" y2="890" x1="583" x2="583"></line>
	<line stroke="Black" y1="900" y2="890" x1="613" x2="613"></line>
	<line stroke="Black" y1="900" y2="890" x1="643" x2="643"></line>
	<line stroke="Black" y1="900" y2="890" x1="672" x2="672"></line>
	<line stroke="Black" y1="900" y2="880" x1="702" x2="702"></line>
	<text x="702" y="940">25</text>
	<line stroke="Black" y1="900" y2="890" x1="732" x2="732"></line>
	<line stroke="Black" y1="900" y2="890" x1="761" x2="761"></line>
	<line stroke="Black" y1="900" y2="890" x1="791" x2="791"></line>
	<line stroke="Black" y1="900" y2="890" x1="820" x2="820"></line>
	<line stroke="Black" y1="900" y2="880" x1="850" x2="850"></line>
	<text x="850" y="940">40</text>
	<line stroke="Black" y1="900" y2="890" x1="880" x2="880"></line>
	<line stroke="Black" x1="455" x2="455" y1="100" y2="900"></line>
	<line stroke="Black" x1="100" x2="900" y1="900" y2="900"></line>
	<text x="500" y="975">Axis-2</text>
</svg>
