<?xml version="1.0" encoding="UTF-8"?>
<svg viewBox="-50 0 1000 1000" xmlns="http://www.w3.org/2000/svg" style="background-color: transparent; font-family: system-ui">
	<line stroke="currentColor" stroke-width="1px" vector-effect="non-scaling-stroke" x1="100" x2="100" y1="100" y2="900"></line>
	<line stroke="currentColor" stroke-width="1px" vector-effect="non-scaling-stroke" x1="100" x2="900" y1="900" y2="900"></line>
	<text style="font-size: 40px;pointer-events: none;dominant-baseline: central;text-anchor: middle;" x="500" y="975" fill="currentColor">X1</text>
	<text style="font-size: 40px;pointer-events: none;dominant-baseline: central;text-anchor: start;transform: translateX(0.5em);" x="50" y="50" fill="currentColor">Y1</text>
	<text style="font-size: 40px;pointer-events: none;dominant-baseline: central;text-anchor: middle;" x="100" y="900" dy="1em" fill="currentColor">0</text>
	<line stroke="currentColor" stroke-width="1px" vector-effect="non-scaling-stroke" x1="144" x2="144" y1="890" y2="900"></line>
	<line stroke="currentColor" stroke-width="1px" vector-effect="non-scaling-stroke" x1="188" x2="188" y1="890" y2="900"></line>
	<line stroke="currentColor" stroke-width="1px" vector-effect="non-scaling-stroke" x1="233" x2="233" y1="890" y2="900"></line>
	<line stroke="currentColor" stroke-width="1px" vector-effect="non-scaling-stroke" x1="277" x2="277" y1="890" y2="900"></line>
	<line stroke="currentColor" stroke-width="1px" vector-effect="non-scaling-stroke" x1="322" x2="322" y1="880" y2="900"></line>
	<text style="font-size: 40px;pointer-events: none;dominant-baseline: central;text-anchor: middle;" x="322" y="900" dy="1em" fill="currentColor">5</text>
	<line stroke="currentColor" stroke-width="1px" vector-effect="non-scaling-stroke" x1="366" x2="366" y1="890" y2="900"></line>
	<line stroke="currentColor" stroke-width="1px" vector-effect="non-scaling-stroke" x1="411" x2="411" y1="890" y2="900"></line>
	<line stroke="currentColor" stroke-width="1px" vector-effect="non-scaling-stroke" x1="455" x2="455" y1="890" y2="900"></line>
	<line stroke="currentColor" stroke-width="1px" vector-effect="non-scaling-stroke" x1="500" x2="500" y1="890" y2="900"></line>
	<line stroke="currentColor" stroke-width="1px" vector-effect="non-scaling-stroke" x1="544" x2="544" y1="880" y2="900"></line>
	<text style="font-size: 40px;pointer-events: none;dominant-baseline: central;text-anchor: middle;" x="544" y="900" dy="1em" fill="currentColor">10</text>
	<line stroke="currentColor" stroke-width="1px" vector-effect="non-scaling-stroke" x1="588" x2="588" y1="890" y2="900"></line>
	<line stroke="currentColor" stroke-width="1px" vector-effect="non-scaling-stroke" x1="633" x2="633" y1="890" y2="900"></line>
	<line stroke="currentColor" stroke-width="1px" vector-effect="non-scaling-stroke" x1="677" x2="677" y1="890" y2="900"></line>
	<line stroke="currentColor" stroke-width="1px" vector-effect="non-scaling-stroke" x1="722" x2="722" y1="890" y2="900"></line>
	<line stroke="currentColor" stroke-width="1px" vector-effect="non-scaling-stroke" x1="766" x2="766" y1="880" y2="900"></line>
	<text style="font-size: 40px;pointer-events: none;dominant-baseline: central;text-anchor: middle;" x="766" y="900" dy="1em" fill="currentColor">15</text>
	<line stroke="currentColor" stroke-width="1px" vector-effect="non-scaling-stroke" x1="811" x2="811" y1="890" y2="900"></line>
	<line stroke="currentColor" stroke-width="1px" vector-effect="non-scaling-stroke" x1="855" x2="855" y1="890" y2="900"></line>
	<line stroke="currentColor" stroke-width="1px" vector-effect="non-scaling-stroke" x1="900" x2="900" y1="890" y2="900"></line>
	<text style="font-size: 40px;pointer-events: none;dominant-baseline: central;text-anchor: end;transform: translateX(-0.5em);" x="100" y="900" fill="currentColor">0</text>
	<line stroke="currentColor" stroke-width="1px" vector-effect="non-scaling-stroke" x1="100" x2="110" y1="866" y2="866"></line>
	<line stroke="currentColor" stroke-width="1px" vector-effect="non-scaling-stroke" x1="100" x2="110" y1="833" y2="833"></line>
	<line stroke="currentColor" stroke-width="1px" vector-effect="non-scaling-stroke" x1="100" x2="110" y1="800" y2="800"></line>
	<line stroke="currentColor" stroke-width="1px" vector-effect="non-scaling-stroke" x1="100" x2="110" y1="767" y2="767"></line>
	<line stroke="currentColor" stroke-width="1px" vector-effect="non-scaling-stroke" x1="100" x2="120" y1="734" y2="734"></line>
	<text style="font-size: 40px;pointer-events: none;dominant-baseline: central;text-anchor: end;transform: translateX(-0.5em);" x="100" y="734" fill="currentColor">35</text>
	<line stroke="currentColor" stroke-width="1px" vector-effect="non-scaling-stroke" x1="100" x2="110" y1="701" y2="701"></line>
	<line stroke="currentColor" stroke-width="1px" vector-effect="non-scaling-stroke" x1="100" x2="110" y1="668" y2="668"></line>
	<line stroke="currentColor" stroke-width="1px" vector-effect="non-scaling-stroke" x1="100" x2="110" y1="634" y2="634"></line>
	<line stroke="currentColor" stroke-width="1px" vector-effect="non-scaling-stroke" x1="100" x2="110" y1="601" y2="601"></line>
	<line stroke="currentColor" stroke-width="1px" vector-effect="non-scaling-stroke" x1="100" x2="120" y1="568" y2="568"></line>
	<text style="font-size: 40px;pointer-events: none;dominant-baseline: central;text-anchor: end;transform: translateX(-0.5em);" x="100" y="568" fill="currentColor">70</text>
	<line stroke="currentColor" stroke-width="1px" vector-effect="non-scaling-stroke" x1="100" x2="110" y1="535" y2="535"></line>
	<line stroke="currentColor" stroke-width="1px" vector-effect="non-scaling-stroke" x1="100" x2="110" y1="502" y2="502"></line>
	<line stroke="currentColor" stroke-width="1px" vector-effect="non-scaling-stroke" x1="100" x2="110" y1="469" y2="469"></line>
	<line stroke="currentColor" stroke-width="1px" vector-effect="non-scaling-stroke" x1="100" x2="110" y1="436" y2="436"></line>
	<line stroke="currentColor" stroke-width="1px" vector-effect="non-scaling-stroke" x1="100" x2="120" y1="402" y2="402"></line>
	<text style="font-size: 40px;pointer-events: none;dominant-baseline: central;text-anchor: end;transform: translateX(-0.5em);" x="100" y="402" fill="currentColor">105</text>
	<line stroke="currentColor" stroke-width="1px" vector-effect="non-scaling-stroke" x1="100" x2="110" y1="369" y2="369"></line>
	<line stroke="currentColor" stroke-width="1px" vector-effect="non-scaling-stroke" x1="100" x2="110" y1="336" y2="336"></line>
	<line stroke="currentColor" stroke-width="1px" vector-effect="non-scaling-stroke" x1="100" x2="110" y1="303" y2="303"></line>
	<line stroke="currentColor" stroke-width="1px" vector-effect="non-scaling-stroke" x1="100" x2="110" y1="270" y2="270"></line>
	<line stroke="currentColor" stroke-width="1px" vector-effect="non-scaling-stroke" x1="100" x2="120" y1="237" y2="237"></line>
	<text style="font-size: 40px;pointer-events: none;dominant-baseline: central;text-anchor: end;transform: translateX(-0.5em);" x="100" y="237" fill="currentColor">140</text>
	<line stroke="currentColor" stroke-width="1px" vector-effect="non-scaling-stroke" x1="100" x2="110" y1="204" y2="204"></line>
	<line stroke="currentColor" stroke-width="1px" vector-effect="non-scaling-stroke" x1="100" x2="110" y1="171" y2="171"></line>
	<line stroke="currentColor" stroke-width="1px" vector-effect="non-scaling-stroke" x1="100" x2="110" y1="137" y2="137"></line>
	<line stroke="currentColor" stroke-width="1px" vector-effect="non-scaling-stroke" x1="100" x2="110" y1="104" y2="104"></line>
	<path fill="none" stroke="#32CD32" stroke-width="1px" vector-effect="non-scaling-stroke" d="M 100 900 L 188 896 L 277 882 L 366 858 L 455 825 L 544 782 L 633 730 L 722 669 L 811 598 L 900 517 ">
		<title>F1</title>
	</path>
	<path fill="none" stroke="#FF4500" stroke-width="1px" vector-effect="non-scaling-stroke" d="M 100 882 L 188 858 L 277 825 L 366 782 L 455 730 L 544 669 L 633 598 L 722 517 L 811 427 L 900 328 ">
		<title>F2</title>
	</path>
	<circle fill="#5F9EA0" stroke="transparent" stroke-width="1px" vector-effect="non-scaling-stroke" cx="100" cy="858" r="10px">
		<title>(0, 9)</title>
	</circle>
	<circle fill="#5F9EA0" stroke="transparent" stroke-width="1px" vector-effect="non-scaling-stroke" cx="188" cy="825" r="10px">
		<title>(2, 16)</title>
	</circle>
	<circle fill="#5F9EA0" stroke="transparent" stroke-width="1px" vector-effect="non-scaling-stroke" cx="277" cy="782" r="10px">
		<title>(4, 25)</title>
	</circle>
	<circle fill="#5F9EA0" stroke="transparent" stroke-width="1px" vector-effect="non-scaling-stroke" cx="366" cy="730" r="10px">
		<title>(6, 36)</title>
	</circle>
	<circle fill="#5F9EA0" stroke="transparent" stroke-width="1px" vector-effect="non-scaling-stroke" cx="455" cy="669" r="10px">
		<title>(8, 49)</title>
	</circle>
	<circle fill="#5F9EA0" stroke="transparent" stroke-width="1px" vector-effect="non-scaling-stroke" cx="544" cy="598" r="10px">
		<title>(10, 64)</title>
	</circle>
	<circle fill="#5F9EA0" stroke="transparent" stroke-width="1px" vector-effect="non-scaling-stroke" cx="633" cy="517" r="10px">
		<title>(12, 81)</title>
	</circle>
	<circle fill="#5F9EA0" stroke="transparent" stroke-width="1px" vector-effect="non-scaling-stroke" cx="722" cy="427" r="10px">
		<title>(14, 100)</title>
	</circle>
	<circle fill="#5F9EA0" stroke="transparent" stroke-width="1px" vector-effect="non-scaling-stroke" cx="811" cy="328" r="10px">
		<title>(16, 121)</title>
	</circle>
	<circle fill="#5F9EA0" stroke="transparent" stroke-width="1px" vector-effect="non-scaling-stroke" cx="900" cy="219" r="10px">
		<title>(18, 144)</title>
	</circle>
	<path fill="none" stroke="#1E90FF" stroke-width="1px" vector-effect="non-scaling-stroke" d="M 100 825 L 188 782 L 277 730 L 366 669 L 455 598 L 544 517 L 633 427 L 722 328 L 811 219 L 900 100 ">
		<title>F4</title>
	</path>
	<circle fill="#1E90FF" stroke="transparent" stroke-width="1px" vector-effect="non-scaling-stroke" cx="100" cy="825" r="10px">
		<title>(0, 16)</title>
	</circle>
	<circle fill="#1E90FF" stroke="transparent" stroke-width="1px" vector-effect="non-scaling-stroke" cx="188" cy="782" r="10px">
		<title>(2, 25)</title>
	</circle>
	<circle fill="#1E90FF" stroke="transparent" stroke-width="1px" vector-effect="non-scaling-stroke" cx="277" cy="730" r="10px">
		<title>(4, 36)</title>
	</circle>
	<circle fill="#1E90FF" stroke="transparent" stroke-width="1px" vector-effect="non-scaling-stroke" cx="366" cy="669" r="10px">
		<title>(6, 49)</title>
	</circle>
	<circle fill="#1E90FF" stroke="transparent" stroke-width="1px" vector-effect="non-scaling-stroke" cx="455" cy="598" r="10px">
		<title>(8, 64)</title>
	</circle>
	<circle fill="#1E90FF" stroke="transparent" stroke-width="1px" vector-effect="non-scaling-stroke" cx="544" cy="517" r="10px">
		<title>(10, 81)</title>
	</circle>
	<circle fill="#1E90FF" stroke="transparent" stroke-width="1px" vector-effect="non-scaling-stroke" cx="633" cy="427" r="10px">
		<title>(12, 100)</title>
	</circle>
	<circle fill="#1E90FF" stroke="transparent" stroke-width="1px" vector-effect="non-scaling-stroke" cx="722" cy="328" r="10px">
		<title>(14, 121)</title>
	</circle>
	<circle fill="#1E90FF" stroke="transparent" stroke-width="1px" vector-effect="non-scaling-stroke" cx="811" cy="219" r="10px">
		<title>(16, 144)</title>
	</circle>
	<circle fill="#1E90FF" stroke="transparent" stroke-width="1px" vector-effect="non-scaling-stroke" cx="900" cy="100" r="10px">
		<title>(18, 169)</title>
	</circle>
	<style>
		path {
			cursor: pointer;
			transition-duration: 0.25s;
		}
		path:hover {
			stroke-width: 3px;
		}

		circle {
			cursor: pointer;
			transition-duration: 0.25s;
		}
		circle:hover {
			r: 15px;
		}
	</style>
</svg>