<?xml version="1.0" encoding="UTF-8"?>
<?xml-stylesheet type="text/css" href="../css/gauges.css"?>
<svg viewBox="0 0 1000 300" xmlns="http://www.w3.org/2000/svg">
	<rect x="100" y="100" width="240" height="100" fill="Green" fill-opacity="0.6">
		<title>LV-1</title>
	</rect>
	<rect x="340" y="100" width="160" height="100" fill="Gold" fill-opacity="0.6">
		<title>LV-2</title>
	</rect><rect x="500" y="100" width="400" height="100" fill="Red" fill-opacity="0.6">
		<title>LV-3</title>
	</rect>
	<line stroke="Black" x1="100" x2="100" y1="220" y2="200"></line>
	<text x="100" y="250">0</text>
	<line stroke="Black" x1="132" x2="132" y1="210" y2="200"></line>
	<line stroke="Black" x1="164" x2="164" y1="210" y2="200"></line>
	<line stroke="Black" x1="196" x2="196" y1="210" y2="200"></line>
	<line stroke="Black" x1="228" x2="228" y1="210" y2="200"></line>
	<line stroke="Black" x1="260" x2="260" y1="220" y2="200"></line>
	<text x="260" y="250">100</text>
	<line stroke="Black" x1="292" x2="292" y1="210" y2="200"></line>
	<line stroke="Black" x1="324" x2="324" y1="210" y2="200"></line>
	<line stroke="Black" x1="356" x2="356" y1="210" y2="200"></line>
	<line stroke="Black" x1="388" x2="388" y1="210" y2="200"></line>
	<line stroke="Black" x1="420" x2="420" y1="220" y2="200"></line>
	<text x="420" y="250">200</text>
	<line stroke="Black" x1="452" x2="452" y1="210" y2="200"></line>
	<line stroke="Black" x1="484" x2="484" y1="210" y2="200"></line>
	<line stroke="Black" x1="516" x2="516" y1="210" y2="200"></line>
	<line stroke="Black" x1="548" x2="548" y1="210" y2="200"></line>
	<line stroke="Black" x1="580" x2="580" y1="220" y2="200"></line>
	<text x="580" y="250">300</text>
	<line stroke="Black" x1="612" x2="612" y1="210" y2="200"></line>
	<line stroke="Black" x1="644" x2="644" y1="210" y2="200"></line>
	<line stroke="Black" x1="676" x2="676" y1="210" y2="200"></line>
	<line stroke="Black" x1="708" x2="708" y1="210" y2="200"></line>
	<line stroke="Black" x1="740" x2="740" y1="220" y2="200"></line>
	<text x="740" y="250">400</text>
	<line stroke="Black" x1="772" x2="772" y1="210" y2="200"></line>
	<line stroke="Black" x1="804" x2="804" y1="210" y2="200"></line>
	<line stroke="Black" x1="836" x2="836" y1="210" y2="200"></line>
	<line stroke="Black" x1="868" x2="868" y1="210" y2="200"></line>
	<line stroke="Black" x1="900" x2="900" y1="220" y2="200"></line>
	<text x="900" y="250">500</text>
	<line stroke="Black" x1="100" x2="900" y1="200" y2="200"></line>
	<rect x="370" y="90" width="20" height="120" fill="GhostWhite" stroke="Black" stroke-width="1px" fill-opacity="1.0">
		<title>175</title>
	</rect>
</svg>