<?xml version="1.0" encoding="UTF-8"?>
<svg viewBox="0 0 1000 1000" xmlns="http://www.w3.org/2000/svg" style="background-color: transparent; font-family: system-ui">
	<path fill="#800080" stroke="transparent" fill-opacity="0.6" stroke-width="1px" vector-effect="non-scaling-stroke" d="M 500 500 L 500 100 A 400 400 0 0 1 629 121 Z">
		<title>S1</title>
	</path>
	<text style="font-size: 40px;pointer-events: none;dominant-baseline: central;text-anchor: middle;" x="572" y="66" fill="currentColor">5</text>
	<path fill="#FF4500" stroke="transparent" fill-opacity="0.6" stroke-width="1px" vector-effect="non-scaling-stroke" d="M 500 500 L 629 121 A 400 400 0 0 1 794 770 Z">
		<title>S2</title>
	</path>
	<text style="font-size: 40px;pointer-events: none;dominant-baseline: central;text-anchor: middle;" x="693" y="450" fill="currentColor">30</text>
	<path fill="#FFD700" stroke="transparent" fill-opacity="0.6" stroke-width="1px" vector-effect="non-scaling-stroke" d="M 500 500 L 794 770 A 400 400 0 0 1 690 851 Z">
		<title>S3</title>
	</path>
	<text style="font-size: 40px;pointer-events: none;dominant-baseline: central;text-anchor: middle;" x="770" y="847" fill="currentColor">5</text>
	<path fill="#00FFFF" stroke="transparent" fill-opacity="0.6" stroke-width="1px" vector-effect="non-scaling-stroke" d="M 500 500 L 690 851 A 400 400 0 0 1 165 281 Z">
		<title>S4</title>
	</path>
	<text style="font-size: 40px;pointer-events: none;dominant-baseline: central;text-anchor: middle;" x="352" y="635" fill="currentColor">40</text>
	<path fill="#1E90FF" stroke="transparent" fill-opacity="0.6" stroke-width="1px" vector-effect="non-scaling-stroke" d="M 500 500 L 165 281 A 400 400 0 0 1 499 100 Z">
		<title>S5</title>
	</path>
	<text style="font-size: 40px;pointer-events: none;dominant-baseline: central;text-anchor: middle;" x="404" y="324" fill="currentColor">15</text>
	<style>
		path {
			transition-duration: 0.25s;
		}
		path:hover {
			fill-opacity: 1.0;
		}
	</style>
</svg>