<?xml version="1.0" encoding="UTF-8"?>
<svg viewBox="0 0 1000 1000" xmlns="http://www.w3.org/2000/svg" style="background-color: transparent; font-family: system-ui">
	<circle fill="transparent" stroke="currentColor" stroke-width="1px" stroke-opacity="0.3" vector-effect="non-scaling-stroke" cx="500" cy="500" r="80"></circle>
	<text style="font-size: 40px;pointer-events: none;dominant-baseline: central;text-anchor: middle;" y="420" x="500" dy="-0.75em" fill="currentColor">40</text>
	<circle fill="transparent" stroke="currentColor" stroke-width="1px" stroke-opacity="0.3" vector-effect="non-scaling-stroke" cx="500" cy="500" r="160"></circle>
	<text style="font-size: 40px;pointer-events: none;dominant-baseline: central;text-anchor: middle;" y="340" x="500" dy="-0.75em" fill="currentColor">80</text>
	<circle fill="transparent" stroke="currentColor" stroke-width="1px" stroke-opacity="0.3" vector-effect="non-scaling-stroke" cx="500" cy="500" r="240"></circle>
	<text style="font-size: 40px;pointer-events: none;dominant-baseline: central;text-anchor: middle;" y="260" x="500" dy="-0.75em" fill="currentColor">120</text>
	<circle fill="transparent" stroke="currentColor" stroke-width="1px" stroke-opacity="0.3" vector-effect="non-scaling-stroke" cx="500" cy="500" r="320"></circle>
	<text style="font-size: 40px;pointer-events: none;dominant-baseline: central;text-anchor: middle;" y="180" x="500" dy="-0.75em" fill="currentColor">160</text>
	<circle fill="transparent" stroke="currentColor" stroke-width="1px" stroke-opacity="0.3" vector-effect="non-scaling-stroke" cx="500" cy="500" r="400"></circle>
	<text style="font-size: 40px;pointer-events: none;dominant-baseline: central;text-anchor: middle;" y="100" x="500" dy="-0.75em" fill="currentColor">200</text>
	<path fill="#800080" stroke="transparent" stroke-width="1px" fill-opacity="0.6" d="M 500 500 L 500 340 A 160 160 0 0 1 652 450 Z">
		<title>80</title>
	</path>
	<path fill="#FF4500" stroke="transparent" stroke-width="1px" fill-opacity="0.6" d="M 500 500 L 595 469 A 100 100 0 0 1 558 580 Z">
		<title>50</title>
	</path>
	<path fill="#FFD700" stroke="transparent" stroke-width="1px" fill-opacity="0.6" d="M 500 500 L 641 694 A 240 240 0 0 1 358 694 Z">
		<title>120</title>
	</path>
	<path fill="#FF0000" stroke="transparent" stroke-width="1px" fill-opacity="0.6" d="M 500 500 L 447 572 A 90 90 0 0 1 414 472 Z">
		<title>45</title>
	</path>
	<path fill="#1E90FF" stroke="transparent" stroke-width="1px" fill-opacity="0.6" d="M 500 500 L 167 391 A 350 350 0 0 1 499 150 Z">
		<title>175</title>
	</path>
	<text style="font-size: 40px;pointer-events: none;dominant-baseline: central;text-anchor: middle;" x="500" y="950" fill="currentColor">R1</text>
	<style>
		path {
			cursor: pointer;
			transition-duration: 0.25s;
		}
		path:hover {
			fill-opacity: 1.0;
		}
	</style>
</svg>