<?xml version="1.0" encoding="UTF-8"?>
<svg viewBox="0 0 1000 1000" xmlns="http://www.w3.org/2000/svg" style="background-color: transparent; font-family: system-ui">
	<line x1="500" y1="500" x2="500" y2="100" stroke="currentColor" stroke-width="1px" stroke-opacity="0.3" vector-effect="non-scaling-stroke"></line>
	<text style="font-size: 40px;pointer-events: none;dominant-baseline: central;text-anchor: middle;" x="500" y="50" fill="currentColor">C1</text>
	<line x1="500" y1="500" x2="846" y2="299" stroke="currentColor" stroke-width="1px" stroke-opacity="0.3" vector-effect="non-scaling-stroke"></line>
	<text style="font-size: 40px;pointer-events: none;dominant-baseline: central;text-anchor: middle;" x="889" y="274" fill="currentColor">C2</text>
	<line x1="500" y1="500" x2="846" y2="699" stroke="currentColor" stroke-width="1px" stroke-opacity="0.3" vector-effect="non-scaling-stroke"></line>
	<text style="font-size: 40px;pointer-events: none;dominant-baseline: central;text-anchor: middle;" x="889" y="724" fill="currentColor">C3</text>
	<line x1="500" y1="500" x2="500" y2="900" stroke="currentColor" stroke-width="1px" stroke-opacity="0.3" vector-effect="non-scaling-stroke"></line>
	<text style="font-size: 40px;pointer-events: none;dominant-baseline: central;text-anchor: middle;" x="500" y="950" fill="currentColor">C4</text>
	<line x1="500" y1="500" x2="153" y2="700" stroke="currentColor" stroke-width="1px" stroke-opacity="0.3" vector-effect="non-scaling-stroke"></line>
	<text style="font-size: 40px;pointer-events: none;dominant-baseline: central;text-anchor: middle;" x="110" y="725" fill="currentColor">C5</text>
	<line x1="500" y1="500" x2="153" y2="300" stroke="currentColor" stroke-width="1px" stroke-opacity="0.3" vector-effect="non-scaling-stroke"></line>
	<text style="font-size: 40px;pointer-events: none;dominant-baseline: central;text-anchor: middle;" x="110" y="275" fill="currentColor">C6</text>
	<path fill="transparent" stroke="currentColor" stroke-width="1px" stroke-opacity="0.3" vector-effect="non-scaling-stroke" d="M 500 420 L 569 460 L 569 540 L 500 580 L 430 540 L 430 460 Z"></path>
	<text style="font-size: 40px;pointer-events: none;dominant-baseline: central;text-anchor: end;transform: translateX(-0.5em);" x="500" y="420" fill="currentColor">40</text>
	<path fill="transparent" stroke="currentColor" stroke-width="1px" stroke-opacity="0.3" vector-effect="non-scaling-stroke" d="M 500 340 L 638 420 L 638 580 L 500 660 L 361 580 L 361 420 Z"></path>
	<text style="font-size: 40px;pointer-events: none;dominant-baseline: central;text-anchor: end;transform: translateX(-0.5em);" x="500" y="340" fill="currentColor">80</text>
	<path fill="transparent" stroke="currentColor" stroke-width="1px" stroke-opacity="0.3" vector-effect="non-scaling-stroke" d="M 500 260 L 707 380 L 707 620 L 500 740 L 292 620 L 292 380 Z"></path>
	<text style="font-size: 40px;pointer-events: none;dominant-baseline: central;text-anchor: end;transform: translateX(-0.5em);" x="500" y="260" fill="currentColor">120</text>
	<path fill="transparent" stroke="currentColor" stroke-width="1px" stroke-opacity="0.3" vector-effect="non-scaling-stroke" d="M 500 180 L 777 340 L 777 660 L 500 820 L 222 660 L 222 340 Z"></path>
	<text style="font-size: 40px;pointer-events: none;dominant-baseline: central;text-anchor: end;transform: translateX(-0.5em);" x="500" y="180" fill="currentColor">160</text>
	<path fill="transparent" stroke="currentColor" stroke-width="1px" stroke-opacity="0.3" vector-effect="non-scaling-stroke" d="M 500 100 L 846 299 L 846 699 L 500 900 L 153 700 L 153 300 Z"></path>
	<text style="font-size: 40px;pointer-events: none;dominant-baseline: central;text-anchor: end;transform: translateX(-0.5em);" x="500" y="100" fill="currentColor">200</text>
	<g>
		<path fill="#C71585" stroke="#C71585" fill-opacity="0.3" stroke-width="1px" vector-effect="non-scaling-stroke" d="M 500 220 L 725 370 L 655 590 L 500 660 L 292 620 L 196 325 Z"></path>
		<circle fill="MediumVioletRed" stroke="transparent" stroke-width="1px" vector-effect="non-scaling-stroke" cx="500" cy="220" r="10px">
			<title>140</title>
		</circle>
		<circle fill="MediumVioletRed" stroke="transparent" stroke-width="1px" vector-effect="non-scaling-stroke" cx="725" cy="370" r="10px">
			<title>130</title>
		</circle>
		<circle fill="MediumVioletRed" stroke="transparent" stroke-width="1px" vector-effect="non-scaling-stroke" cx="655" cy="590" r="10px">
			<title>90</title>
		</circle>
		<circle fill="MediumVioletRed" stroke="transparent" stroke-width="1px" vector-effect="non-scaling-stroke" cx="500" cy="660" r="10px">
			<title>80</title>
		</circle>
		<circle fill="MediumVioletRed" stroke="transparent" stroke-width="1px" vector-effect="non-scaling-stroke" cx="292" cy="620" r="10px">
			<title>120</title>
		</circle>
		<circle fill="MediumVioletRed" stroke="transparent" stroke-width="1px" vector-effect="non-scaling-stroke" cx="196" cy="325" r="10px">
			<title>175</title>
		</circle>
	</g>
	<style>
		g > circle {
			cursor: pointer;
			transition-duration: 0.25s;
		}
		g > circle:hover {
			r: 15px;
		}
	</style>
</svg>