<?xml version="1.0" encoding="utf-8"?>
<?xml-stylesheet type="text/css" href="../css/gauges.css"?>
<svg viewBox="0 0 1000 600" xmlns="http://www.w3.org/2000/svg">
	<path d="M 200 500 A 300 300 0 0 1 323 257" fill="none" stroke="Green" stroke-width="100" stroke-opacity="0.6">
		<title>LV-1</title>
	</path>
	<path d="M 323 257 A 300 300 0 0 1 500 200" fill="none" stroke="Gold" stroke-width="100" stroke-opacity="0.6">
		<title>LV-2</title>
	</path>
	<path d="M 500 200 A 300 300 0 0 1 800 499" fill="none" stroke="Red" stroke-width="100" stroke-opacity="0.6">
		<title>LV-3</title>
	</path>
	<line stroke="Black" x1="150" x2="130" y1="500" y2="500"></line>
	<text x="100" y="500">0</text>
	<line stroke="Black" x1="152" x2="142" y1="456" y2="454"></line>
	<line stroke="Black" x1="160" x2="151" y1="412" y2="410"></line>
	<line stroke="Black" x1="174" x2="165" y1="371" y2="367"></line>
	<line stroke="Black" x1="193" x2="184" y1="331" y2="326"></line>
	<line stroke="Black" x1="216" x2="200" y1="294" y2="282"></line>
	<text x="176" y="264">100</text>
	<line stroke="Black" x1="244" x2="237" y1="260" y2="253"></line>
	<line stroke="Black" x1="276" x2="270" y1="230" y2="222"></line>
	<line stroke="Black" x1="312" x2="307" y1="204" y2="196"></line>
	<line stroke="Black" x1="350" x2="346" y1="183" y2="174"></line>
	<line stroke="Black" x1="391" x2="385" y1="167" y2="148"></line>
	<text x="376" y="119">200</text>
	<line stroke="Black" x1="434" x2="432" y1="156" y2="146"></line>
	<line stroke="Black" x1="478" x2="477" y1="150" y2="140"></line>
	<line stroke="Black" x1="521" x2="522" y1="150" y2="140"></line>
	<line stroke="Black" x1="565" x2="567" y1="156" y2="146"></line>
	<line stroke="Black" x1="608" x2="614" y1="167" y2="148"></line>
	<text x="623" y="119">300</text>
	<line stroke="Black" x1="649" x2="653" y1="183" y2="174"></line>
	<line stroke="Black" x1="687" x2="692" y1="204" y2="196"></line>
	<line stroke="Black" x1="723" x2="729" y1="230" y2="222"></line>
	<line stroke="Black" x1="755" x2="762" y1="260" y2="253"></line>
	<line stroke="Black" x1="783" x2="799" y1="294" y2="282"></line>
	<text x="823" y="264">400</text>
	<line stroke="Black" x1="806" x2="815" y1="331" y2="326"></line>
	<line stroke="Black" x1="825" x2="834" y1="371" y2="367"></line>
	<line stroke="Black" x1="839" x2="848" y1="412" y2="410"></line>
	<line stroke="Black" x1="847" x2="857" y1="456" y2="454"></line>
	<line stroke="Black" x1="850" x2="870" y1="499" y2="499"></line>
	<text x="900" y="499">500</text>
	<path d="M 150 500 A 350 350 0 0 1 850 499" fill="none" stroke-width="1px" stroke="Black" vector-effect="non-scaling-stroke"></path>
	<path d="M 327 183L 382 290L 399 281L 345 174 Z" fill="GhostWhite" stroke="Black" stroke-width="1px" fill-opacity="1.0" vector-effect="non-scaling-stroke">
		<title>value: 175</title>
	</path>
</svg>