<?xml version="1.0" encoding="utf-8"?>
<svg viewBox="0 0 1000 1000" xmlns="http://www.w3.org/2000/svg" style="background-color: transparent; font-family: system-ui">
	<path d="M 301 699 A 282 282 0 0 1 272 334" fill="none" stroke="#008000" stroke-width="100" stroke-opacity="0.6">
		<title>LV-1</title>
	</path>
	<path d="M 272 334 A 282 282 0 0 1 500 218" fill="none" stroke="#FFD700" stroke-width="100" stroke-opacity="0.6">
		<title>LV-2</title>
	</path>
	<path d="M 500 218 A 282 282 0 0 1 699 699" fill="none" stroke="#FF0000" stroke-width="100" stroke-opacity="0.6">
		<title>LV-3</title>
	</path>
	<line stroke="currentColor" stroke-width="1px" vector-effect="non-scaling-stroke" x1="265" x2="251" y1="734" y2="748"></line>
	<text x="229" y="770" style="font-size: 40px;pointer-events: none;dominant-baseline: central;fill: currentColor;text-anchor: middle">0</text>
	<line stroke="currentColor" stroke-width="1px" vector-effect="non-scaling-stroke" x1="225" x2="217" y1="686" y2="692"></line>
	<line stroke="currentColor" stroke-width="1px" vector-effect="non-scaling-stroke" x1="195" x2="186" y1="631" y2="635"></line>
	<line stroke="currentColor" stroke-width="1px" vector-effect="non-scaling-stroke" x1="175" x2="166" y1="572" y2="574"></line>
	<line stroke="currentColor" stroke-width="1px" vector-effect="non-scaling-stroke" x1="168" x2="158" y1="510" y2="510"></line>
	<line stroke="currentColor" stroke-width="1px" vector-effect="non-scaling-stroke" x1="172" x2="152" y1="448" y2="444"></line>
	<text x="122" y="440" style="font-size: 40px;pointer-events: none;dominant-baseline: central;fill: currentColor;text-anchor: middle">100</text>
	<line stroke="currentColor" stroke-width="1px" vector-effect="non-scaling-stroke" x1="187" x2="178" y1="387" y2="384"></line>
	<line stroke="currentColor" stroke-width="1px" vector-effect="non-scaling-stroke" x1="214" x2="205" y1="330" y2="325"></line>
	<line stroke="currentColor" stroke-width="1px" vector-effect="non-scaling-stroke" x1="250" x2="243" y1="280" y2="273"></line>
	<line stroke="currentColor" stroke-width="1px" vector-effect="non-scaling-stroke" x1="296" x2="290" y1="237" y2="229"></line>
	<line stroke="currentColor" stroke-width="1px" vector-effect="non-scaling-stroke" x1="349" x2="340" y1="204" y2="186"></line>
	<text x="326" y="159" style="font-size: 40px;pointer-events: none;dominant-baseline: central;fill: currentColor;text-anchor: middle">200</text>
	<line stroke="currentColor" stroke-width="1px" vector-effect="non-scaling-stroke" x1="407" x2="404" y1="181" y2="171"></line>
	<line stroke="currentColor" stroke-width="1px" vector-effect="non-scaling-stroke" x1="468" x2="467" y1="169" y2="159"></line>
	<line stroke="currentColor" stroke-width="1px" vector-effect="non-scaling-stroke" x1="531" x2="532" y1="169" y2="159"></line>
	<line stroke="currentColor" stroke-width="1px" vector-effect="non-scaling-stroke" x1="592" x2="595" y1="181" y2="171"></line>
	<line stroke="currentColor" stroke-width="1px" vector-effect="non-scaling-stroke" x1="650" x2="659" y1="204" y2="186"></line>
	<text x="673" y="159" style="font-size: 40px;pointer-events: none;dominant-baseline: central;fill: currentColor;text-anchor: middle">300</text>
	<line stroke="currentColor" stroke-width="1px" vector-effect="non-scaling-stroke" x1="703" x2="709" y1="237" y2="229"></line>
	<line stroke="currentColor" stroke-width="1px" vector-effect="non-scaling-stroke" x1="749" x2="756" y1="280" y2="273"></line>
	<line stroke="currentColor" stroke-width="1px" vector-effect="non-scaling-stroke" x1="785" x2="794" y1="330" y2="325"></line>
	<line stroke="currentColor" stroke-width="1px" vector-effect="non-scaling-stroke" x1="812" x2="821" y1="387" y2="384"></line>
	<line stroke="currentColor" stroke-width="1px" vector-effect="non-scaling-stroke" x1="827" x2="847" y1="448" y2="444"></line>
	<text x="877" y="440" style="font-size: 40px;pointer-events: none;dominant-baseline: central;fill: currentColor;text-anchor: middle">400</text>
	<line stroke="currentColor" stroke-width="1px" vector-effect="non-scaling-stroke" x1="831" x2="841" y1="510" y2="510"></line>
	<line stroke="currentColor" stroke-width="1px" vector-effect="non-scaling-stroke" x1="824" x2="833" y1="572" y2="574"></line>
	<line stroke="currentColor" stroke-width="1px" vector-effect="non-scaling-stroke" x1="804" x2="813" y1="631" y2="635"></line>
	<line stroke="currentColor" stroke-width="1px" vector-effect="non-scaling-stroke" x1="774" x2="782" y1="686" y2="692"></line>
	<line stroke="currentColor" stroke-width="1px" vector-effect="non-scaling-stroke" x1="734" x2="748" y1="734" y2="748"></line>
	<text x="770" y="770" style="font-size: 40px;pointer-events: none;dominant-baseline: central;fill: currentColor;text-anchor: middle">500</text>
	<path d="M 265 735 A 332 332 0 1 1 735 735" fill="none" stroke="currentColor" stroke-width="1px" vector-effect="non-scaling-stroke"></path>
	<text x="500" y="666" style="font-size: 100px;pointer-events: none;dominant-baseline: central;fill: currentColor;text-anchor: middle">170</text>
	<path d="M 254 252L 268 239L 518 505L 504 518Z" fill="#FFFFFF" stroke="currentColor" stroke-width="1px" fill-opacity="1.0" vector-effect="non-scaling-stroke">
		<title>170</title>
	</path>
	<circle cx="500" cy="500" r="50" fill="#FFFFFF" fill-opacity="1.0" stroke-width="1px" stroke="currentColor" vector-effect="non-scaling-stroke"></circle>
	<style>
		path {
			transition-duration: 0.25s;
		}

		path:hover {
			stroke-opacity: 1.0;
		}
	</style>
</svg>