<?xml version="1.0" encoding="utf-8"?>
<svg viewBox="0 0 1000 1000" xmlns="http://www.w3.org/2000/svg" style="background-color: transparent; font-family: system-ui">
	<path d="M 288 712 A 300 300 0 0 1 257 324" fill="none" stroke="#008000" stroke-width="100" stroke-opacity="0.6">
		<title></title>
	</path>
	<path d="M 257 324 A 300 300 0 0 1 500 200" fill="none" stroke="#FFD700" stroke-width="100" stroke-opacity="0.6">
		<title></title>
	</path>
	<path d="M 500 200 A 300 300 0 0 1 712 712" fill="none" stroke="#FF0000" stroke-width="100" stroke-opacity="0.6">
		<title></title>
	</path>
	<path fill="none" stroke="currentColor" stroke-width="1px" vector-effect="non-scaling-stroke" d="M 253 747 A 350 350 0 1 1 747 747"></path>
	<line stroke="currentColor" stroke-width="1px" vector-effect="non-scaling-stroke" x1="252" y1="747" x2="238" y2="761"></line>
	<text x="210" y="789" style="font-size: 40px; pointer-events: none; dominant-baseline: central; text-anchor: middle; fill: currentColor;">0</text>
	<line stroke="currentColor" stroke-width="1px" vector-effect="non-scaling-stroke" x1="210" y1="696" x2="202" y2="702"></line>
	<line stroke="currentColor" stroke-width="1px" vector-effect="non-scaling-stroke" x1="178" y1="639" x2="169" y2="642"></line>
	<line stroke="currentColor" stroke-width="1px" vector-effect="non-scaling-stroke" x1="158" y1="576" x2="148" y2="578"></line>
	<line stroke="currentColor" stroke-width="1px" vector-effect="non-scaling-stroke" x1="150" y1="510" x2="140" y2="511"></line>
	<line stroke="currentColor" stroke-width="1px" vector-effect="non-scaling-stroke" x1="154" y1="445" x2="134" y2="442"></line>
	<text x="95" y="435" style="font-size: 40px; pointer-events: none; dominant-baseline: central; text-anchor: middle; fill: currentColor;">100</text>
	<line stroke="currentColor" stroke-width="1px" vector-effect="non-scaling-stroke" x1="170" y1="381" x2="161" y2="378"></line>
	<line stroke="currentColor" stroke-width="1px" vector-effect="non-scaling-stroke" x1="198" y1="321" x2="190" y2="316"></line>
	<line stroke="currentColor" stroke-width="1px" vector-effect="non-scaling-stroke" x1="237" y1="268" x2="229" y2="261"></line>
	<line stroke="currentColor" stroke-width="1px" vector-effect="non-scaling-stroke" x1="285" y1="223" x2="279" y2="215"></line>
	<line stroke="currentColor" stroke-width="1px" vector-effect="non-scaling-stroke" x1="341" y1="188" x2="332" y2="170"></line>
	<text x="313" y="134" style="font-size: 40px; pointer-events: none; dominant-baseline: central; text-anchor: middle; fill: currentColor;">200</text>
	<line stroke="currentColor" stroke-width="1px" vector-effect="non-scaling-stroke" x1="402" y1="163" x2="399" y2="154"></line>
	<line stroke="currentColor" stroke-width="1px" vector-effect="non-scaling-stroke" x1="467" y1="151" x2="466" y2="141"></line>
	<line stroke="currentColor" stroke-width="1px" vector-effect="non-scaling-stroke" x1="532" y1="151" x2="533" y2="141"></line>
	<line stroke="currentColor" stroke-width="1px" vector-effect="non-scaling-stroke" x1="597" y1="163" x2="600" y2="154"></line>
	<line stroke="currentColor" stroke-width="1px" vector-effect="non-scaling-stroke" x1="658" y1="188" x2="667" y2="170"></line>
	<text x="686" y="134" style="font-size: 40px; pointer-events: none; dominant-baseline: central; text-anchor: middle; fill: currentColor;">300</text>
	<line stroke="currentColor" stroke-width="1px" vector-effect="non-scaling-stroke" x1="714" y1="223" x2="720" y2="215"></line>
	<line stroke="currentColor" stroke-width="1px" vector-effect="non-scaling-stroke" x1="762" y1="268" x2="770" y2="261"></line>
	<line stroke="currentColor" stroke-width="1px" vector-effect="non-scaling-stroke" x1="801" y1="321" x2="809" y2="316"></line>
	<line stroke="currentColor" stroke-width="1px" vector-effect="non-scaling-stroke" x1="829" y1="381" x2="838" y2="378"></line>
	<line stroke="currentColor" stroke-width="1px" vector-effect="non-scaling-stroke" x1="845" y1="445" x2="865" y2="442"></line>
	<text x="904" y="435" style="font-size: 40px; pointer-events: none; dominant-baseline: central; text-anchor: middle; fill: currentColor;">400</text>
	<line stroke="currentColor" stroke-width="1px" vector-effect="non-scaling-stroke" x1="849" y1="510" x2="859" y2="511"></line>
	<line stroke="currentColor" stroke-width="1px" vector-effect="non-scaling-stroke" x1="841" y1="576" x2="851" y2="578"></line>
	<line stroke="currentColor" stroke-width="1px" vector-effect="non-scaling-stroke" x1="821" y1="639" x2="830" y2="642"></line>
	<line stroke="currentColor" stroke-width="1px" vector-effect="non-scaling-stroke" x1="789" y1="696" x2="797" y2="702"></line>
	<line stroke="currentColor" stroke-width="1px" vector-effect="non-scaling-stroke" x1="747" y1="747" x2="761" y2="761"></line>
	<text x="789" y="789" style="font-size: 40px; pointer-events: none; dominant-baseline: central; text-anchor: middle; fill: currentColor;">500</text>
	<text x="500" y="850" style="font-size: 40px; pointer-events: none; dominant-baseline: central; text-anchor: middle; fill: currentColor;">G1</text>
	<text x="500" y="850" dy="-1em" style="font-size: 100px; pointer-events: none; dominant-baseline: central; text-anchor: middle; fill: currentColor;">170</text>
	<path d="M 246 244L 260 230L 507 493L 492 506Z" fill="#FFFFFF" stroke="currentColor" stroke-width="1px" fill-opacity="1.0" vector-effect="non-scaling-stroke">
		<title>170</title>
	</path>
	<circle cx="500" cy="500" r="50" fill="#FFFFFF" fill-opacity="1.0" stroke-width="1px" stroke="currentColor" vector-effect="non-scaling-stroke"></circle>
	<style>
		path {
			transition-duration: 0.25s;
		}

		path:hover {
			stroke-opacity: 1.0;
		}
	</style>
</svg>