<?xml version="1.0" encoding="UTF-8"?>
<svg viewBox="0 0 300 1000" xmlns="http://www.w3.org/2000/svg" style="background-color: transparent; font-family: system-ui">
	<rect y="660" x="50" height="240" width="100" fill="#008000" fill-opacity="0.6" stroke-width="1px" vector-effect="non-scaling-stroke">
		<title>LV-1</title>
	</rect>
	<rect y="500" x="50" height="160" width="100" fill="#FFD700" fill-opacity="0.6" stroke-width="1px" vector-effect="non-scaling-stroke">
		<title>LV-2</title>
	</rect>
	<rect y="100" x="50" height="400" width="100" fill="#FF0000" fill-opacity="0.6" stroke-width="1px" vector-effect="non-scaling-stroke">
		<title>LV-3</title>
	</rect>
	<line stroke="currentColor" stroke-width="1px" vector-effect="non-scaling-stroke" y1="900" y2="900" x1="170" x2="150"></line>
	<text x="170" y="900" dx="0.5em" style="font-size: 40px;pointer-events: none;dominant-baseline: central;fill: currentColor;text-anchor: start">0</text>
	<line stroke="currentColor" stroke-width="1px" vector-effect="non-scaling-stroke" y1="868" y2="868" x1="160" x2="150"></line>
	<line stroke="currentColor" stroke-width="1px" vector-effect="non-scaling-stroke" y1="836" y2="836" x1="160" x2="150"></line>
	<line stroke="currentColor" stroke-width="1px" vector-effect="non-scaling-stroke" y1="804" y2="804" x1="160" x2="150"></line>
	<line stroke="currentColor" stroke-width="1px" vector-effect="non-scaling-stroke" y1="772" y2="772" x1="160" x2="150"></line>
	<line stroke="currentColor" stroke-width="1px" vector-effect="non-scaling-stroke" y1="740" y2="740" x1="170" x2="150"></line>
	<text x="170" y="740" dx="0.5em" style="font-size: 40px;pointer-events: none;dominant-baseline: central;fill: currentColor;text-anchor: start">100</text>
	<line stroke="currentColor" stroke-width="1px" vector-effect="non-scaling-stroke" y1="708" y2="708" x1="160" x2="150"></line>
	<line stroke="currentColor" stroke-width="1px" vector-effect="non-scaling-stroke" y1="676" y2="676" x1="160" x2="150"></line>
	<line stroke="currentColor" stroke-width="1px" vector-effect="non-scaling-stroke" y1="644" y2="644" x1="160" x2="150"></line>
	<line stroke="currentColor" stroke-width="1px" vector-effect="non-scaling-stroke" y1="612" y2="612" x1="160" x2="150"></line>
	<line stroke="currentColor" stroke-width="1px" vector-effect="non-scaling-stroke" y1="580" y2="580" x1="170" x2="150"></line>
	<text x="170" y="580" dx="0.5em" style="font-size: 40px;pointer-events: none;dominant-baseline: central;fill: currentColor;text-anchor: start">200</text>
	<line stroke="currentColor" stroke-width="1px" vector-effect="non-scaling-stroke" y1="548" y2="548" x1="160" x2="150"></line>
	<line stroke="currentColor" stroke-width="1px" vector-effect="non-scaling-stroke" y1="516" y2="516" x1="160" x2="150"></line>
	<line stroke="currentColor" stroke-width="1px" vector-effect="non-scaling-stroke" y1="484" y2="484" x1="160" x2="150"></line>
	<line stroke="currentColor" stroke-width="1px" vector-effect="non-scaling-stroke" y1="452" y2="452" x1="160" x2="150"></line>
	<line stroke="currentColor" stroke-width="1px" vector-effect="non-scaling-stroke" y1="420" y2="420" x1="170" x2="150"></line>
	<text x="170" y="420" dx="0.5em" style="font-size: 40px;pointer-events: none;dominant-baseline: central;fill: currentColor;text-anchor: start">300</text>
	<line stroke="currentColor" stroke-width="1px" vector-effect="non-scaling-stroke" y1="388" y2="388" x1="160" x2="150"></line>
	<line stroke="currentColor" stroke-width="1px" vector-effect="non-scaling-stroke" y1="356" y2="356" x1="160" x2="150"></line>
	<line stroke="currentColor" stroke-width="1px" vector-effect="non-scaling-stroke" y1="324" y2="324" x1="160" x2="150"></line>
	<line stroke="currentColor" stroke-width="1px" vector-effect="non-scaling-stroke" y1="292" y2="292" x1="160" x2="150"></line>
	<line stroke="currentColor" stroke-width="1px" vector-effect="non-scaling-stroke" y1="260" y2="260" x1="170" x2="150"></line>
	<text x="170" y="260" dx="0.5em" style="font-size: 40px;pointer-events: none;dominant-baseline: central;fill: currentColor;text-anchor: start">400</text>
	<line stroke="currentColor" stroke-width="1px" vector-effect="non-scaling-stroke" y1="228" y2="228" x1="160" x2="150"></line>
	<line stroke="currentColor" stroke-width="1px" vector-effect="non-scaling-stroke" y1="196" y2="196" x1="160" x2="150"></line>
	<line stroke="currentColor" stroke-width="1px" vector-effect="non-scaling-stroke" y1="164" y2="164" x1="160" x2="150"></line>
	<line stroke="currentColor" stroke-width="1px" vector-effect="non-scaling-stroke" y1="132" y2="132" x1="160" x2="150"></line>
	<line stroke="currentColor" stroke-width="1px" vector-effect="non-scaling-stroke" y1="100" y2="100" x1="170" x2="150"></line>
	<text x="170" y="100" dx="0.5em" style="font-size: 40px;pointer-events: none;dominant-baseline: central;fill: currentColor;text-anchor: start">500</text>
	<line stroke="currentColor" stroke-width="1px" vector-effect="non-scaling-stroke" x1="150" x2="150" y1="900" y2="100"></line>
	<rect y="618" x="40" height="20" width="120" fill="#FFFFFF" stroke="currentColor" stroke-width="1px" fill-opacity="1.0" vector-effect="non-scaling-stroke">
		<title>170</title>
	</rect>
	<style>
		rect {
			transition-duration: 0.25s;
		}

		rect:hover {
			fill-opacity: 1.0;
		}
	</style>
</svg>