<?xml version="1.0" encoding="UTF-8"?>
<?xml-stylesheet type="text/css" href="../css/charts.css"?>
<svg viewBox="0 0 1000 1000" xmlns="http://www.w3.org/2000/svg">
	<line stroke="LightGray" x1="500" y1="500" x2="500" y2="100"></line>
	<text x="500" y="50">C1</text>
	<line stroke="LightGray" x1="500" y1="500" x2="846" y2="300"></line>
	<text x="889" y="275">C2</text>
	<line stroke="LightGray" x1="500" y1="500" x2="846" y2="700"></line>
	<text x="889" y="723">C3</text>
	<line stroke="LightGray" x1="500" y1="500" x2="500" y2="900"></line>
	<text x="500" y="950">C4</text>
	<line stroke="LightGray" x1="500" y1="500" x2="154" y2="700"></line>
	<text x="111" y="725">C5</text>
	<line stroke="LightGray" x1="500" y1="500" x2="154" y2="300"></line>
	<text x="111" y="277">C6</text>
	<polygon fill="none" stroke="LightGray" points="500,420 568,460 568,539 500,579 431,539 431,460"></polygon>
	<text class="tick" x="500" y="420">35</text>
	<polygon fill="none" stroke="LightGray" points="500,340 637,420 637,579 500,659 362,579 362,420"></polygon>
	<text class="tick" x="500" y="340">70</text>
	<polygon fill="none" stroke="LightGray" points="500,261 706,380 706,619 500,738 293,619 293,380"></polygon>
	<text class="tick" x="500" y="261">105</text>
	<polygon fill="none" stroke="LightGray" points="500,181 775,340 775,659 500,818 224,659 224,340"></polygon>
	<text class="tick" x="500" y="181">140</text>
	<polygon fill="none" stroke="LightGray" points="500,102 844,301 844,698 500,897 155,698 155,301"></polygon>
	<text class="tick" x="500" y="102">175</text>
	<g>
		<path fill="MediumVioletRed" stroke="MediumVioletRed" style="fill-opacity:0.3" d="M 500 156 L 755 352 L 677 602 L 500 681 L 263 636 L 401 443 Z"></path>
		<circle fill="MediumVioletRed" stroke="White" cx="500" cy="156" r="0.5em">
			<title>151</title>
		</circle>
		<circle fill="MediumVioletRed" stroke="White" cx="755" cy="352" r="0.5em">
			<title>130</title>
		</circle>
		<circle fill="MediumVioletRed" stroke="White" cx="677" cy="602" r="0.5em">
			<title>90</title>
		</circle>
		<circle fill="MediumVioletRed" stroke="White" cx="500" cy="681" r="0.5em">
			<title>80</title>
		</circle>
		<circle fill="MediumVioletRed" stroke="White" cx="263" cy="636" r="0.5em">
			<title>120</title>
		</circle>
		<circle fill="MediumVioletRed" stroke="White" cx="401" cy="443" r="0.5em">
			<title>50</title>
		</circle>
	</g>
</svg>